<svg width="23" height="19" viewBox="0 0 23 19" fill="none" xmlns="http://www.w3.org/2000/svg">
<path d="M6.68233 1.18216e-08H21.9449C22.2247 1.18216e-08 22.4931 0.11121 22.691 0.309165C22.8888 0.50712 23 0.775605 23 1.05556V17.9444C23 18.2244 22.8888 18.4929 22.691 18.6908C22.4931 18.8888 22.2247 19 21.9449 19H6.68233C6.50866 19 6.33768 18.9572 6.18454 18.8752C6.0314 18.7933 5.90084 18.6748 5.80446 18.5303L0.177421 10.0858C0.0617367 9.91237 0 9.70852 0 9.5C0 9.29148 0.0617367 9.08763 0.177421 8.91417L5.80446 0.469722C5.90084 0.3252 6.0314 0.206712 6.18454 0.124772C6.33768 0.0428322 6.50866 -2.5987e-05 6.68233 1.18216e-08ZM13.5038 8.00745L10.5199 5.02128L9.02684 6.51489L12.0118 9.5L9.02684 12.4851L10.5199 13.9787L13.5038 10.9926L16.4877 13.9787L17.9807 12.4851L14.9957 9.5L17.9807 6.51489L16.4877 5.02128L13.5038 8.00745Z" fill="#4F4E66"/>
</svg>
