<svg width="32" height="32" viewBox="0 0 32 32" fill="none" xmlns="http://www.w3.org/2000/svg">
<path d="M4 7.66675C4 7.11446 4.44772 6.66675 5 6.66675H27C27.5523 6.66675 28 7.11446 28 7.66675V10.6667H4V7.66675Z" fill="#4F4E66"/>
<rect x="9.33301" y="4" width="2.66667" height="5.33333" rx="1" fill="#4F4E66"/>
<rect x="20" y="4" width="2.66667" height="5.33333" rx="1" fill="#4F4E66"/>
<path fill-rule="evenodd" clip-rule="evenodd" d="M4 13.3333H28V25.6666C28 26.2189 27.5523 26.6666 27 26.6666H5C4.44772 26.6666 4 26.2189 4 25.6666V13.3333ZM22.6667 16.9999C22.6667 16.4476 23.1144 15.9999 23.6667 15.9999H24.3333C24.8856 15.9999 25.3333 16.4476 25.3333 16.9999V17.6666C25.3333 18.2189 24.8856 18.6666 24.3333 18.6666H23.6667C23.1144 18.6666 22.6667 18.2189 22.6667 17.6666V16.9999ZM18.3333 15.9999C17.781 15.9999 17.3333 16.4476 17.3333 16.9999V17.6666C17.3333 18.2189 17.7811 18.6666 18.3333 18.6666H19C19.5523 18.6666 20 18.2189 20 17.6666V16.9999C20 16.4476 19.5523 15.9999 19 15.9999H18.3333ZM12 22.3333C12 21.781 12.4477 21.3333 13 21.3333H13.6667C14.219 21.3333 14.6667 21.781 14.6667 22.3333V22.9999C14.6667 23.5522 14.219 23.9999 13.6667 23.9999H13C12.4477 23.9999 12 23.5522 12 22.9999V22.3333ZM13 15.9999C12.4477 15.9999 12 16.4476 12 16.9999V17.6666C12 18.2189 12.4477 18.6666 13 18.6666H13.6667C14.219 18.6666 14.6667 18.2189 14.6667 17.6666V16.9999C14.6667 16.4476 14.219 15.9999 13.6667 15.9999H13ZM6.66667 22.3333C6.66667 21.781 7.11438 21.3333 7.66667 21.3333H8.33333C8.88562 21.3333 9.33333 21.781 9.33333 22.3333V22.9999C9.33333 23.5522 8.88562 23.9999 8.33333 23.9999H7.66667C7.11438 23.9999 6.66667 23.5522 6.66667 22.9999V22.3333ZM7.66667 15.9999C7.11438 15.9999 6.66667 16.4476 6.66667 16.9999V17.6666C6.66667 18.2189 7.11438 18.6666 7.66667 18.6666H8.33333C8.88562 18.6666 9.33333 18.2189 9.33333 17.6666V16.9999C9.33333 16.4476 8.88562 15.9999 8.33333 15.9999H7.66667Z" fill="#4F4E66"/>
</svg>
