<svg width="21" height="27" viewBox="0 0 21 27" fill="none" xmlns="http://www.w3.org/2000/svg">
<path d="M19.5022 0H1.50566C0.673583 0 0 0.694192 0 1.55172V25.4483C0 26.3058 0.673583 27 1.50566 27H19.4943C20.3263 27 20.9999 26.3058 20.9999 25.4483V1.55172C21.0079 0.694192 20.3343 0 19.5022 0ZM5.1113 24.0027C4.3347 24.0027 3.70074 23.3494 3.70074 22.549C3.70074 21.7486 4.3347 21.0953 5.1113 21.0953C5.8879 21.0953 6.52186 21.7486 6.52186 22.549C6.52979 23.3494 5.89583 24.0027 5.1113 24.0027ZM5.1113 19.4782C4.3347 19.4782 3.70074 18.8249 3.70074 18.0245C3.70074 17.2241 4.3347 16.5708 5.1113 16.5708C5.8879 16.5708 6.52186 17.2241 6.52186 18.0245C6.52186 18.8249 5.89583 19.4782 5.1113 19.4782ZM5.1113 14.9537C4.3347 14.9537 3.70074 14.3004 3.70074 13.5C3.70074 12.6996 4.3347 12.0463 5.1113 12.0463C5.8879 12.0463 6.52186 12.6996 6.52186 13.5C6.52979 14.3085 5.89583 14.9537 5.1113 14.9537ZM7.79771 7.2686C7.52828 6.93376 7.1162 6.4274 7.1162 5.70871C7.1162 4.53267 8.05129 3.56897 9.19242 3.56897C9.67582 3.56897 10.1354 3.74047 10.5 4.04265C11.2052 3.44646 12.2751 3.35662 13.2022 4.05898C13.3686 4.18149 13.4954 4.35299 13.5905 4.53267C14.2483 5.88838 13.6777 6.74592 13.2022 7.28494C13.1943 7.2931 13.1864 7.30127 13.1864 7.30944L11.0705 9.62886C10.9279 9.78403 10.7219 9.88203 10.5079 9.88203C10.2939 9.88203 10.0958 9.7922 9.94525 9.63702L7.82941 7.30944C7.81356 7.2931 7.80563 7.28494 7.79771 7.2686ZM16.6969 23.4392H8.74073C8.26525 23.4392 7.87695 23.039 7.87695 22.549C7.87695 22.059 8.26525 21.6588 8.74073 21.6588H16.6969C17.1724 21.6588 17.5607 22.059 17.5607 22.549C17.5607 23.039 17.1724 23.4392 16.6969 23.4392ZM16.6969 18.9147H8.74073C8.26525 18.9147 7.87695 18.5145 7.87695 18.0245C7.87695 17.5345 8.26525 17.1343 8.74073 17.1343H16.6969C17.1724 17.1343 17.5607 17.5345 17.5607 18.0245C17.5607 18.5145 17.1724 18.9147 16.6969 18.9147ZM16.6969 14.3984H8.74073C8.26525 14.3984 7.87695 13.9982 7.87695 13.5082C7.87695 13.0181 8.26525 12.618 8.74073 12.618H16.6969C17.1724 12.618 17.5607 13.0181 17.5607 13.5082C17.5607 13.9982 17.1724 14.3984 16.6969 14.3984Z" fill="#BDBDD3"/>
</svg>
