<svg width="24" height="24" viewBox="0 0 24 24" fill="none" xmlns="http://www.w3.org/2000/svg">
<path fill-rule="evenodd" clip-rule="evenodd" d="M5 2C4.44772 2 4 2.44772 4 3V13H3.5C2.67157 13 2 13.6716 2 14.5V16.5C2 17.3284 2.67157 18 3.5 18H4V21C4 21.5523 4.44772 22 5 22C5.55228 22 6 21.5523 6 21V18H6.5C7.32843 18 8 17.3284 8 16.5V14.5C8 13.6716 7.32843 13 6.5 13H6V3C6 2.44772 5.55228 2 5 2ZM12 2C11.4477 2 11 2.44772 11 3V6H10.5C9.67157 6 9 6.67157 9 7.5V9.5C9 10.3284 9.67157 11 10.5 11H11V21C11 21.5523 11.4477 22 12 22C12.5523 22 13 21.5523 13 21V11H13.5C14.3284 11 15 10.3284 15 9.5V7.5C15 6.67157 14.3284 6 13.5 6H13V3C13 2.44772 12.5523 2 12 2ZM18 3C18 2.44772 18.4477 2 19 2C19.5523 2 20 2.44772 20 3V13H20.5C21.3284 13 22 13.6716 22 14.5V16.5C22 17.3284 21.3284 18 20.5 18H20V21C20 21.5523 19.5523 22 19 22C18.4477 22 18 21.5523 18 21V18H17.5C16.6716 18 16 17.3284 16 16.5V14.5C16 13.6716 16.6716 13 17.5 13H18V3Z" fill="#6461B4"/>
</svg>
