<svg width="22" height="18" viewBox="0 0 22 18" fill="none" xmlns="http://www.w3.org/2000/svg">
<path d="M21.1901 9.29159L11.6248 0.285057C11.222 -0.0950189 10.4483 -0.0950189 10.0455 0.285057L0.480157 9.29159C0.342476 9.42092 0.252103 9.58136 0.220027 9.7534C0.187951 9.92545 0.215554 10.1017 0.299479 10.2607C0.469529 10.5858 0.850016 10.7948 1.26983 10.7948H3.39545V17.0993C3.39545 17.3382 3.50743 17.5673 3.70674 17.7362C3.90606 17.9051 4.17639 18 4.45826 18H7.6467C7.92858 18 8.19891 17.9051 8.39822 17.7362C8.59754 17.5673 8.70951 17.3382 8.70951 17.0993V13.4967H12.9608V17.0993C12.9608 17.3382 13.0727 17.5673 13.2721 17.7362C13.4714 17.9051 13.7417 18 14.0236 18H17.212C17.4939 18 17.7642 17.9051 17.9635 17.7362C18.1629 17.5673 18.2748 17.3382 18.2748 17.0993V10.7948H20.4004C20.6063 10.7955 20.8079 10.7455 20.9808 10.6508C21.1536 10.5561 21.2903 10.4208 21.374 10.2615C21.4577 10.1021 21.4849 9.92559 21.4522 9.75337C21.4196 9.58115 21.3285 9.4207 21.1901 9.29159Z" fill="#9998AE"/>
</svg>
