<svg width="27" height="27" viewBox="0 0 27 27" fill="none" xmlns="http://www.w3.org/2000/svg">
<path d="M26.5317 24.6485L24.7804 22.8972C25.318 22.0908 25.5868 21.1459 25.5868 20.201C25.5868 17.236 23.1594 14.8168 20.2026 14.8168C17.2376 14.8168 14.8184 17.2442 14.8184 20.201C14.8184 23.1578 17.2457 25.5852 20.2026 25.5852C21.1475 25.5852 22.0842 25.3164 22.8988 24.7788L24.6501 26.5301C24.9189 26.7989 25.7253 27.3365 26.5317 26.5301C27.0693 25.9925 27.0693 25.1861 26.5317 24.6485ZM17.5145 20.201C17.5145 18.7185 18.7282 17.5048 20.2107 17.5048C21.6932 17.5048 22.9069 18.7185 22.9069 20.201C22.9069 21.6835 21.6932 22.8972 20.2107 22.8972C18.7201 22.8972 17.5145 21.6835 17.5145 20.201Z" fill="#BDBDD3"/>
<path d="M20.201 0H1.34401C0.537603 0 0 0.537608 0 1.34402V25.5852C0 26.3917 0.537603 26.9293 1.34401 26.9293H15.7535C13.595 25.4468 12.1206 23.0275 12.1206 20.1929C12.1206 15.7454 15.7535 12.1125 20.201 12.1125C20.6083 12.1125 21.1459 12.1125 21.545 12.2509V1.35216C21.5532 0.545753 21.0074 0 20.201 0ZM10.7766 10.7766H4.0402C3.23378 10.7766 2.69618 10.1005 2.69618 9.43257C2.69618 8.62616 3.23378 8.08855 4.0402 8.08855H10.7766C11.583 8.08855 12.1206 8.62616 12.1206 9.43257C12.1206 10.1005 11.583 10.7766 10.7766 10.7766ZM17.513 5.39237H4.04835C3.24194 5.39237 2.70432 4.71629 2.70432 4.04835C2.70432 3.24194 3.24194 2.70433 4.04835 2.70433H17.513C18.3194 2.70433 18.857 3.24194 18.857 4.04835C18.857 4.71629 18.3194 5.39237 17.513 5.39237Z" fill="#BDBDD3"/>
</svg>
