<svg width="20" height="24" viewBox="0 0 20 24" fill="none" xmlns="http://www.w3.org/2000/svg">
<path d="M8.59913 0C8.189 0 7.79567 0.158035 7.50566 0.43934C7.21566 0.720644 7.05273 1.10218 7.05273 1.5C7.05273 1.89782 7.21566 2.27936 7.50566 2.56066C7.79567 2.84196 8.189 3 8.59913 3H11.6919C12.102 3 12.4954 2.84196 12.7854 2.56066C13.0754 2.27936 13.2383 1.89782 13.2383 1.5C13.2383 1.10218 13.0754 0.720644 12.7854 0.43934C12.4954 0.158035 12.102 0 11.6919 0H8.59913Z" fill="#9998AE"/>
<path fill-rule="evenodd" clip-rule="evenodd" d="M0.867188 4.49951C0.867188 3.70386 1.19303 2.9408 1.77304 2.37819C2.35305 1.81558 3.13971 1.49951 3.95997 1.49951C3.95997 2.69299 4.44874 3.83758 5.31875 4.68149C6.18877 5.52541 7.36876 5.99951 8.59915 5.99951H11.6919C12.9223 5.99951 14.1023 5.52541 14.9723 4.68149C15.8423 3.83758 16.3311 2.69299 16.3311 1.49951C17.1514 1.49951 17.938 1.81558 18.518 2.37819C19.098 2.9408 19.4239 3.70386 19.4239 4.49951V20.9995C19.4239 21.7952 19.098 22.5582 18.518 23.1208C17.938 23.6834 17.1514 23.9995 16.3311 23.9995H3.95997C3.13971 23.9995 2.35305 23.6834 1.77304 23.1208C1.19303 22.5582 0.867188 21.7952 0.867188 20.9995V4.49951ZM15.878 13.06C16.1597 12.7771 16.3156 12.3982 16.312 12.0049C16.3085 11.6116 16.1459 11.2354 15.8592 10.9573C15.5725 10.6792 15.1846 10.5214 14.7791 10.518C14.3737 10.5146 13.9831 10.6658 13.6914 10.939L8.59915 15.8785L6.59966 13.939C6.30801 13.6658 5.91739 13.5146 5.51193 13.518C5.10647 13.5214 4.71861 13.6792 4.4319 13.9573C4.14519 14.2354 3.98255 14.6116 3.97903 15.0049C3.97551 15.3982 4.13138 15.7771 4.41306 16.06L7.50585 19.06C7.79584 19.3412 8.1891 19.4992 8.59915 19.4992C9.00919 19.4992 9.40245 19.3412 9.69244 19.06L15.878 13.06Z" fill="#9998AE"/>
</svg>
