<svg width="158" height="79" viewBox="0 0 158 79" fill="none" xmlns="http://www.w3.org/2000/svg">
<path d="M57.8266 67.2225C57.3914 66.7814 56.7469 66.5609 55.8865 66.5609H50.3418C49.8301 66.5609 49.571 66.2836 49.571 65.7289V65.2244C49.571 64.9671 49.6308 64.7633 49.7504 64.613C49.8667 64.4659 50.0693 64.3891 50.355 64.3891H57.7669C57.9861 64.3891 58.0924 64.2788 58.0924 64.0617V62.6517C58.0924 62.4311 57.9861 62.3242 57.7669 62.3242H49.9265C49.0295 62.3242 48.3684 62.5481 47.9431 62.9925C47.5179 63.4402 47.3086 64.0216 47.3086 64.7466V65.8325C47.3086 66.6545 47.5212 67.2859 47.9564 67.727C48.3883 68.168 49.0395 68.3885 49.8966 68.3885H55.4446C55.9529 68.3885 56.2121 68.6659 56.2121 69.2205V69.832C56.2121 70.0892 56.1523 70.293 56.0327 70.4434C55.9164 70.5938 55.7137 70.6673 55.428 70.6673H47.6608C47.4315 70.6673 47.3219 70.7775 47.3219 70.9947V72.4047C47.3219 72.6252 47.4348 72.7321 47.6608 72.7321H55.8566C56.7536 72.7321 57.4147 72.5116 57.8399 72.0639C58.2652 71.6128 58.4745 71.0315 58.4745 70.3098V69.1169C58.4778 68.295 58.2585 67.6635 57.8266 67.2225Z" fill="#333333"/>
<path d="M72.6778 64.4325C72.5283 63.9346 72.2925 63.5337 71.9602 63.2196C71.6313 62.9089 71.2028 62.6783 70.6746 62.5346C70.1463 62.391 69.5085 62.3208 68.7577 62.3208H64.1863C63.4388 62.3208 62.8043 62.3943 62.2794 62.5346C61.7545 62.6783 61.3292 62.9055 61.0003 63.2196C60.6714 63.5337 60.4256 63.9346 60.2761 64.4325C60.1233 64.9303 60.0469 65.5317 60.0469 66.2501V68.8095C60.0469 69.5245 60.1233 70.1326 60.2761 70.6304C60.4256 71.1316 60.6681 71.5392 61.0003 71.85C61.3292 72.1641 61.7578 72.3879 62.2794 72.5283C62.8043 72.6652 63.4388 72.7354 64.1863 72.7354H68.7577C69.5085 72.7354 70.1463 72.6686 70.6746 72.5283C71.2028 72.3879 71.6313 72.1641 71.9602 71.85C72.2891 71.5392 72.5283 71.1316 72.6778 70.6304C72.8273 70.1326 72.9004 69.5245 72.9004 68.8095V66.2501C72.9004 65.5317 72.8273 64.927 72.6778 64.4325ZM70.638 68.6424C70.638 69.03 70.6015 69.3541 70.5417 69.6147C70.4752 69.8787 70.3722 70.0858 70.2227 70.2395C70.0732 70.3932 69.8772 70.5001 69.6247 70.5669C69.3723 70.6304 69.0566 70.6638 68.6713 70.6638H64.276C63.8906 70.6638 63.5717 70.6304 63.3226 70.5669C63.0734 70.5001 62.8707 70.3932 62.7279 70.2395C62.5784 70.0858 62.4721 69.8787 62.4056 69.6147C62.3425 69.3541 62.3093 69.0266 62.3093 68.6424V66.4105C62.3093 66.0229 62.3425 65.6988 62.4056 65.4382C62.4721 65.1742 62.5784 64.9671 62.7279 64.8134C62.8707 64.6597 63.0734 64.5527 63.3226 64.4893C63.575 64.4224 63.894 64.3924 64.276 64.3924H68.6713C69.0566 64.3924 69.3756 64.4258 69.6247 64.4893C69.8772 64.5527 70.0732 64.663 70.2227 64.8134C70.3722 64.9671 70.4752 65.1742 70.5417 65.4382C70.6048 65.6988 70.638 66.0262 70.638 66.4105V68.6424Z" fill="#333333"/>
<path d="M84.9255 70.6204H78.9323C78.5502 70.6204 78.228 70.5903 77.9788 70.5235C77.7296 70.4567 77.5303 70.3498 77.3841 70.1961C77.2346 70.0424 77.1316 69.8319 77.0652 69.5713C76.9988 69.3073 76.9689 68.9799 76.9689 68.5823V62.6482C76.9689 62.4277 76.8592 62.3208 76.64 62.3208H75.042C74.8128 62.3208 74.7031 62.4277 74.7031 62.6482V68.8061C74.7031 69.5211 74.7795 70.1293 74.9324 70.6271C75.0852 71.1283 75.3244 71.5359 75.6566 71.8466C75.9855 72.1607 76.4141 72.3846 76.9356 72.5249C77.4605 72.6619 78.0984 72.7321 78.8426 72.7321H84.9255C85.1414 72.7321 85.2477 72.6251 85.2477 72.4046V70.9479C85.2477 70.7273 85.1414 70.6204 84.9255 70.6204Z" fill="#333333"/>
<path d="M98.5633 62.3208H96.9521C96.7328 62.3208 96.6265 62.4277 96.6265 62.6482V68.5823C96.6265 68.9799 96.5999 69.3073 96.5368 69.5713C96.477 69.8319 96.374 70.0457 96.2245 70.1961C96.0784 70.3498 95.8757 70.4567 95.6265 70.5235C95.374 70.5903 95.0551 70.6204 94.6731 70.6204H90.5735C90.1914 70.6204 89.8725 70.5903 89.62 70.5235C89.3675 70.4567 89.1715 70.3498 89.022 70.1961C88.8758 70.0424 88.7695 69.8319 88.7064 69.5713C88.64 69.3073 88.6101 68.9799 88.6101 68.5823V62.6482C88.6101 62.4277 88.4971 62.3208 88.2845 62.3208H86.6865C86.4573 62.3208 86.3477 62.4277 86.3477 62.6482V68.8061C86.3477 69.5211 86.4241 70.1293 86.5769 70.6271C86.7297 71.1283 86.9722 71.5359 87.3044 71.8466C87.6333 72.1607 88.0619 72.3846 88.5835 72.5249C89.1084 72.6619 89.7429 72.7321 90.4904 72.7321H94.7495C95.5003 72.7321 96.1382 72.6652 96.6664 72.5249C97.1946 72.3846 97.6232 72.1607 97.9554 71.8466C98.2843 71.5359 98.5235 71.1283 98.673 70.6271C98.8225 70.1293 98.8956 69.5211 98.8956 68.8061V62.6482C98.8922 62.4277 98.7793 62.3208 98.5633 62.3208Z" fill="#333333"/>
<path d="M112.082 62.3208H100.53C100.304 62.3208 100.191 62.4277 100.191 62.6482V64.105C100.191 64.3356 100.304 64.4458 100.53 64.4458H105.175V72.4046C105.175 72.6251 105.284 72.7321 105.5 72.7321H107.112C107.331 72.7321 107.44 72.6251 107.44 72.4046V64.4458H112.085C112.314 64.4458 112.427 64.3322 112.427 64.105V62.6482C112.424 62.4277 112.311 62.3208 112.082 62.3208Z" fill="#333333"/>
<path d="M115.678 62.3208H114.08C113.851 62.3208 113.738 62.4277 113.738 62.6482V72.4046C113.738 72.6251 113.851 72.7321 114.08 72.7321H115.678C115.891 72.7321 116.004 72.6251 116.004 72.4046V62.6482C116.004 62.4277 115.891 62.3208 115.678 62.3208Z" fill="#333333"/>
<path d="M130.486 64.4325C130.337 63.9346 130.098 63.5337 129.769 63.2196C129.44 62.9089 129.011 62.6783 128.483 62.5346C127.958 62.391 127.317 62.3208 126.566 62.3208H121.998C121.247 62.3208 120.61 62.3943 120.088 62.5346C119.566 62.6783 119.138 62.9055 118.809 63.2196C118.48 63.5337 118.238 63.9346 118.085 64.4325C117.932 64.9303 117.855 65.5317 117.855 66.2501V68.8095C117.855 69.5245 117.929 70.1326 118.085 70.6304C118.238 71.1316 118.48 71.5392 118.809 71.85C119.138 72.1641 119.566 72.3879 120.088 72.5283C120.613 72.6652 121.247 72.7354 121.998 72.7354H126.566C127.317 72.7354 127.955 72.6686 128.483 72.5283C129.011 72.3879 129.443 72.1641 129.769 71.85C130.098 71.5392 130.34 71.1316 130.486 70.6304C130.633 70.1326 130.709 69.5245 130.709 68.8095V66.2501C130.709 65.5317 130.633 64.927 130.486 64.4325ZM128.443 68.6424C128.443 69.03 128.413 69.3541 128.347 69.6147C128.28 69.8787 128.178 70.0858 128.031 70.2395C127.882 70.3932 127.683 70.5001 127.43 70.5669C127.178 70.6304 126.859 70.6638 126.477 70.6638H122.085C121.699 70.6638 121.38 70.6304 121.131 70.5669C120.879 70.5001 120.679 70.3932 120.53 70.2395C120.38 70.0858 120.277 69.8787 120.214 69.6147C120.148 69.3541 120.118 69.0266 120.118 68.6424V66.4105C120.118 66.0229 120.151 65.6988 120.214 65.4382C120.277 65.1742 120.38 64.9671 120.53 64.8134C120.679 64.6597 120.875 64.5527 121.131 64.4893C121.384 64.4224 121.699 64.3924 122.085 64.3924H126.477C126.862 64.3924 127.181 64.4258 127.43 64.4893C127.683 64.5527 127.882 64.663 128.031 64.8134C128.178 64.9671 128.284 65.1742 128.347 65.4382C128.413 65.6988 128.443 66.0262 128.443 66.4105V68.6424Z" fill="#333333"/>
<path d="M144.715 62.3207H143.16C142.941 62.3207 142.835 62.4276 142.835 62.6482V70.4132C142.835 70.5134 142.795 70.5602 142.715 70.5602H142.582C142.492 70.5602 142.429 70.5268 142.389 70.4566L136.888 63.1961C136.752 63.0057 136.625 62.8553 136.519 62.7417C136.413 62.6281 136.296 62.5379 136.18 62.4744C136.061 62.4076 135.924 62.3675 135.768 62.3441C135.609 62.3241 135.413 62.3174 135.174 62.3174H133.871C133.416 62.3174 133.084 62.4243 132.865 62.6381C132.645 62.8486 132.539 63.2596 132.539 63.8644V72.4012C132.539 72.6217 132.652 72.7287 132.878 72.7287H134.433C134.645 72.7287 134.755 72.6217 134.755 72.4012V64.6362C134.755 64.5393 134.795 64.4892 134.875 64.4892H135.007C135.077 64.4892 135.144 64.5226 135.197 64.5928L140.715 71.8533C140.864 72.0537 140.994 72.2074 141.107 72.321C141.22 72.438 141.336 72.5248 141.456 72.5816C141.572 72.6418 141.708 72.6819 141.861 72.7019C142.014 72.722 142.203 72.7287 142.433 72.7287H143.705C144.16 72.7287 144.496 72.6217 144.712 72.4079C144.924 72.1974 145.034 71.7864 145.034 71.185V62.6482C145.04 62.4276 144.931 62.3207 144.715 62.3207Z" fill="#333333"/>
<path d="M157.346 67.2225C156.914 66.7814 156.266 66.5609 155.405 66.5609H149.857C149.342 66.5609 149.087 66.2836 149.087 65.7289V65.2244C149.087 64.9671 149.146 64.7633 149.263 64.613C149.382 64.4659 149.585 64.3891 149.871 64.3891H157.282C157.495 64.3891 157.608 64.2788 157.608 64.0617V62.6517C157.608 62.4311 157.495 62.3242 157.282 62.3242H149.439C148.542 62.3242 147.884 62.5481 147.459 62.9925C147.034 63.4402 146.824 64.0216 146.824 64.7466V65.8325C146.824 66.6545 147.04 67.2859 147.475 67.727C147.907 68.168 148.552 68.3885 149.412 68.3885H154.957C155.472 68.3885 155.728 68.6659 155.728 69.2205V69.832C155.728 70.0892 155.668 70.293 155.552 70.4434C155.432 70.5938 155.229 70.6673 154.944 70.6673H147.18C146.95 70.6673 146.841 70.7775 146.841 70.9947V72.4047C146.841 72.6252 146.954 72.7321 147.18 72.7321H155.372C156.269 72.7321 156.93 72.5116 157.356 72.0639C157.781 71.6128 157.99 71.0315 157.99 70.3098V69.1169C157.997 68.295 157.781 67.6635 157.346 67.2225Z" fill="#333333"/>
<path d="M4.89991 21.15C4.31853 21.15 3.84678 21.6212 3.84678 22.2059C3.84678 22.7906 4.31853 23.265 4.89991 23.265C5.4813 23.265 5.95305 22.7906 5.95305 22.2059C5.95305 21.6212 5.4813 21.15 4.89991 21.15ZM13.5642 23.0713C12.9828 23.0713 12.5144 23.5424 12.5144 24.1271C12.5144 24.7118 12.9828 25.1863 13.5642 25.1863C14.1456 25.1863 14.6173 24.7118 14.6173 24.1271C14.6173 23.5424 14.1456 23.0713 13.5642 23.0713ZM13.0659 12.9072C12.4845 12.9072 12.016 13.3817 12.016 13.9664C12.016 14.5511 12.4845 15.0222 13.0659 15.0222C13.6472 15.0222 14.119 14.5511 14.119 13.9664C14.119 13.3817 13.6472 12.9072 13.0659 12.9072ZM25.0257 13.7693C24.4444 13.7693 23.9759 14.2437 23.9759 14.8284C23.9759 15.4132 24.4444 15.8876 25.0257 15.8876C25.6071 15.8876 26.0789 15.4132 26.0789 14.8284C26.0789 14.2437 25.6071 13.7693 25.0257 13.7693ZM25.0257 13.7693C24.4444 13.7693 23.9759 14.2437 23.9759 14.8284C23.9759 15.4132 24.4444 15.8876 25.0257 15.8876C25.6071 15.8876 26.0789 15.4132 26.0789 14.8284C26.0789 14.2437 25.6071 13.7693 25.0257 13.7693ZM25.9692 5.80713C25.3879 5.80713 24.9161 6.28158 24.9161 6.8663C24.9161 7.45101 25.3879 7.92213 25.9692 7.92213C26.5506 7.92213 27.0191 7.45101 27.0191 6.8663C27.0191 6.28158 26.5506 5.80713 25.9692 5.80713ZM145.482 48.9758C144.924 48.8188 144.342 49.1462 144.186 49.7075C144.027 50.2722 144.355 50.8536 144.914 51.0139C145.472 51.171 146.053 50.8435 146.213 50.2789C146.369 49.7175 146.043 49.1328 145.482 48.9758ZM148.013 40.6261C147.455 40.469 146.874 40.7965 146.718 41.3578C146.561 41.9225 146.887 42.5038 147.445 42.6642C148.007 42.8213 148.585 42.4938 148.744 41.9291C148.9 41.3678 148.575 40.7831 148.013 40.6261ZM147.664 29.7938C147.106 29.6368 146.525 29.9642 146.369 30.5289C146.209 31.0902 146.538 31.6749 147.096 31.832C147.654 31.989 148.236 31.6616 148.392 31.1002C148.551 30.5356 148.222 29.9508 147.664 29.7938ZM145.482 48.9758C144.924 48.8188 144.342 49.1462 144.186 49.7075C144.027 50.2722 144.355 50.8536 144.914 51.0139C145.472 51.171 146.053 50.8435 146.213 50.2789C146.369 49.7175 146.043 49.1328 145.482 48.9758ZM25.0257 13.7693C24.4444 13.7693 23.9759 14.2437 23.9759 14.8284C23.9759 15.4132 24.4444 15.8876 25.0257 15.8876C25.6071 15.8876 26.0789 15.4132 26.0789 14.8284C26.0789 14.2437 25.6071 13.7693 25.0257 13.7693ZM25.0257 13.7693C24.4444 13.7693 23.9759 14.2437 23.9759 14.8284C23.9759 15.4132 24.4444 15.8876 25.0257 15.8876C25.6071 15.8876 26.0789 15.4132 26.0789 14.8284C26.0789 14.2437 25.6071 13.7693 25.0257 13.7693ZM13.0659 12.9072C12.4845 12.9072 12.016 13.3817 12.016 13.9664C12.016 14.5511 12.4845 15.0222 13.0659 15.0222C13.6472 15.0222 14.119 14.5511 14.119 13.9664C14.119 13.3817 13.6472 12.9072 13.0659 12.9072ZM13.5642 23.0713C12.9828 23.0713 12.5144 23.5424 12.5144 24.1271C12.5144 24.7118 12.9828 25.1863 13.5642 25.1863C14.1456 25.1863 14.6173 24.7118 14.6173 24.1271C14.6173 23.5424 14.1456 23.0713 13.5642 23.0713ZM4.89991 21.15C4.31853 21.15 3.84678 21.6212 3.84678 22.2059C3.84678 22.7906 4.31853 23.265 4.89991 23.265C5.4813 23.265 5.95305 22.7906 5.95305 22.2059C5.95305 21.6212 5.4813 21.15 4.89991 21.15ZM3.68067 28.6678C3.09929 28.6678 2.63086 29.1389 2.63086 29.7236C2.63086 30.3084 3.09929 30.7828 3.68067 30.7828C4.26205 30.7828 4.73381 30.3084 4.73381 29.7236C4.73381 29.1389 4.26205 28.6678 3.68067 28.6678Z" fill="url(#paint0_linear)"/>
<path d="M4.73381 29.7238C4.73381 30.3085 4.26205 30.783 3.68067 30.783C3.09929 30.783 2.63086 30.3085 2.63086 29.7238C2.63086 29.1391 3.09929 28.668 3.68067 28.668C4.26205 28.668 4.73381 29.1391 4.73381 29.7238Z" fill="url(#paint1_linear)"/>
<path d="M5.95392 22.2057C5.95392 22.7904 5.48217 23.2649 4.90079 23.2649C4.31941 23.2649 3.84766 22.7904 3.84766 22.2057C3.84766 21.621 4.31941 21.1499 4.90079 21.1499C5.48217 21.1499 5.95392 21.621 5.95392 22.2057Z" fill="url(#paint2_linear)"/>
<path d="M14.6186 24.1271C14.6186 24.7118 14.1468 25.1863 13.5654 25.1863C12.9841 25.1863 12.5156 24.7118 12.5156 24.1271C12.5156 23.5424 12.9841 23.0713 13.5654 23.0713C14.1468 23.0713 14.6186 23.5424 14.6186 24.1271Z" fill="url(#paint3_linear)"/>
<path d="M14.1186 13.9664C14.1186 14.5511 13.6468 15.0222 13.0654 15.0222C12.4841 15.0222 12.0156 14.5511 12.0156 13.9664C12.0156 13.3817 12.4841 12.9072 13.0654 12.9072C13.6468 12.9072 14.1186 13.3817 14.1186 13.9664Z" fill="url(#paint4_linear)"/>
<path d="M26.0795 14.8282C26.0795 15.4129 25.6078 15.8874 25.0264 15.8874C24.445 15.8874 23.9766 15.4129 23.9766 14.8282C23.9766 14.2435 24.445 13.769 25.0264 13.769C25.6078 13.769 26.0795 14.2435 26.0795 14.8282Z" fill="url(#paint5_linear)"/>
<path d="M5.95392 22.2057C5.95392 22.7904 5.48217 23.2649 4.90079 23.2649C4.31941 23.2649 3.84766 22.7904 3.84766 22.2057C3.84766 21.621 4.31941 21.1499 4.90079 21.1499C5.48217 21.1499 5.95392 21.621 5.95392 22.2057Z" fill="url(#paint6_linear)"/>
<path d="M4.73381 29.7238C4.73381 30.3085 4.26205 30.783 3.68067 30.783C3.09929 30.783 2.63086 30.3085 2.63086 29.7238C2.63086 29.1391 3.09929 28.668 3.68067 28.668C4.26205 28.668 4.73381 29.1391 4.73381 29.7238Z" fill="url(#paint7_linear)"/>
<path d="M14.6186 24.1271C14.6186 24.7118 14.1468 25.1863 13.5654 25.1863C12.9841 25.1863 12.5156 24.7118 12.5156 24.1271C12.5156 23.5424 12.9841 23.0713 13.5654 23.0713C14.1468 23.0713 14.6186 23.5424 14.6186 24.1271Z" fill="url(#paint8_linear)"/>
<path d="M26.0795 14.8282C26.0795 15.4129 25.6078 15.8874 25.0264 15.8874C24.445 15.8874 23.9766 15.4129 23.9766 14.8282C23.9766 14.2435 24.445 13.769 25.0264 13.769C25.6078 13.769 26.0795 14.2435 26.0795 14.8282Z" fill="url(#paint9_linear)"/>
<path d="M27.019 6.8663C27.019 7.45101 26.5505 7.92213 25.9691 7.92213C25.3878 7.92213 24.916 7.45101 24.916 6.8663C24.916 6.28158 25.3878 5.80713 25.9691 5.80713C26.5505 5.80713 27.019 6.28158 27.019 6.8663Z" fill="url(#paint10_linear)"/>
<path d="M27.019 6.8663C27.019 7.45101 26.5505 7.92213 25.9691 7.92213C25.3878 7.92213 24.916 7.45101 24.916 6.8663C24.916 6.28158 25.3878 5.80713 25.9691 5.80713C26.5505 5.80713 27.019 6.28158 27.019 6.8663Z" fill="url(#paint11_linear)"/>
<path d="M14.1186 13.9664C14.1186 14.5511 13.6468 15.0222 13.0654 15.0222C12.4841 15.0222 12.0156 14.5511 12.0156 13.9664C12.0156 13.3817 12.4841 12.9072 13.0654 12.9072C13.6468 12.9072 14.1186 13.3817 14.1186 13.9664Z" fill="url(#paint12_linear)"/>
<path d="M146.213 50.2789C146.054 50.8436 145.472 51.171 144.914 51.014C144.356 50.8536 144.027 50.2722 144.187 49.7076C144.343 49.1462 144.924 48.8188 145.482 48.9758C146.044 49.1329 146.369 49.7176 146.213 50.2789Z" fill="url(#paint13_linear)"/>
<path d="M148.743 41.9288C148.584 42.4935 148.006 42.8209 147.444 42.6639C146.886 42.5035 146.561 41.9221 146.717 41.3575C146.873 40.7961 147.454 40.4687 148.012 40.6257C148.574 40.7828 148.9 41.3675 148.743 41.9288Z" fill="url(#paint14_linear)"/>
<path d="M148.392 31.1001C148.235 31.6614 147.654 31.9889 147.096 31.8318C146.538 31.6748 146.209 31.0901 146.368 30.5288C146.525 29.9641 147.106 29.6367 147.664 29.7937C148.222 29.9507 148.551 30.5354 148.392 31.1001Z" fill="url(#paint15_linear)"/>
<path d="M148.743 41.9288C148.584 42.4935 148.006 42.8209 147.444 42.6639C146.886 42.5035 146.561 41.9221 146.717 41.3575C146.873 40.7961 147.454 40.4687 148.012 40.6257C148.574 40.7828 148.9 41.3675 148.743 41.9288Z" fill="url(#paint16_linear)"/>
<path d="M146.213 50.2789C146.054 50.8436 145.472 51.171 144.914 51.014C144.356 50.8536 144.027 50.2722 144.187 49.7076C144.343 49.1462 144.924 48.8188 145.482 48.9758C146.044 49.1329 146.369 49.7176 146.213 50.2789Z" fill="url(#paint17_linear)"/>
<path d="M148.392 31.1001C148.235 31.6614 147.654 31.9889 147.096 31.8318C146.538 31.6748 146.209 31.0901 146.368 30.5288C146.525 29.9641 147.106 29.6367 147.664 29.7937C148.222 29.9507 148.551 30.5354 148.392 31.1001Z" fill="url(#paint18_linear)"/>
<path d="M80.387 20.1743L80.3804 23.7695C80.3804 23.7695 80.3804 23.7695 80.3837 23.7695L80.3937 20.1743H80.387ZM80.387 20.1743L80.3804 23.7695C80.3804 23.7695 80.3804 23.7695 80.3837 23.7695L80.3937 20.1743H80.387ZM149.216 31.8319L158 42.7811V0H21.9663L25.4513 4.92497C25.6041 4.89156 25.7636 4.87151 25.9264 4.87151C27.1091 4.87151 28.0659 5.83379 28.0659 7.01992C28.0659 8.2094 27.1091 9.17167 25.9264 9.17167C24.747 9.17167 23.7869 8.2094 23.7869 7.01992C23.7869 6.60895 23.8998 6.22805 24.1025 5.90061L19.9298 0H15.395L24.5111 12.8871C24.6639 12.8537 24.8234 12.8337 24.9862 12.8337C26.1689 12.8337 27.1257 13.7959 27.1257 14.9821C27.1257 16.1715 26.1689 17.1338 24.9862 17.1338C23.8068 17.1338 22.8467 16.1715 22.8467 14.9821C22.8467 14.5711 22.9597 14.1902 23.1623 13.8628L13.3585 0H4.17931L12.5878 11.8847C12.7406 11.8513 12.9001 11.8313 13.0628 11.8313C14.2455 11.8313 15.2023 12.7936 15.2023 13.9797C15.2023 15.1692 14.2455 16.1315 13.0628 16.1315C11.8835 16.1315 10.9234 15.1692 10.9234 13.9797C10.9234 13.5687 11.0363 13.1878 11.239 12.8604L2.14281 0H0V3.57511L13.0861 22.0755C13.2389 22.0421 13.3984 22.022 13.5612 22.022C14.7439 22.022 15.7007 22.9843 15.7007 24.1704C15.7007 25.3599 14.7439 26.3222 13.5612 26.3222C12.3818 26.3222 11.4217 25.3599 11.4217 24.1704C11.4217 23.7595 11.5346 23.3786 11.7373 23.0511L0 6.45859V13.8995L4.36536 20.0708C4.51818 20.0373 4.67764 20.0173 4.84043 20.0173C6.02313 20.0173 6.97992 20.9796 6.97992 22.1657C6.97992 23.3552 6.02313 24.3175 4.84043 24.3175C3.66105 24.3175 2.70094 23.3552 2.70094 22.1657C2.70094 21.7547 2.81389 21.3738 3.01655 21.0464L0 16.783V23.1981L3.1893 27.7055C3.34212 27.6721 3.50159 27.652 3.66437 27.652C4.84707 27.652 5.80386 28.6143 5.80386 29.8004C5.80386 30.9899 4.84707 31.9522 3.66437 31.9522C2.485 31.9522 1.52489 30.9899 1.52489 29.8004C1.52489 29.3894 1.63784 29.0085 1.84049 28.6811L0 26.0783V41.8389C12.9167 30.1078 25.8367 18.3801 38.7633 6.66241C39.0988 6.35836 39.6005 6.06433 40.0257 6.06099C47.0057 6.02758 53.9889 6.0376 60.9688 6.04428C61.105 6.04428 61.2412 6.08438 61.5236 6.12781V18.213C61.5236 19.5896 61.5469 20.9729 61.5004 22.3528C61.5004 22.3562 61.5004 22.3562 61.5004 22.3595C61.497 22.443 61.4738 22.5466 61.4372 22.6502C61.3575 22.8707 61.208 23.0912 61.0618 23.138C57.228 24.4043 53.3809 25.6205 49.4209 26.8869V16.382C47.3844 16.382 45.4941 16.3453 43.6071 16.4121L14.92 42.2532L0 56.156V58.3846H150.778L145.701 52.0597C145.333 52.1666 144.937 52.1733 144.542 52.063C143.406 51.7423 142.741 50.5528 143.06 49.4101C143.379 48.264 144.558 47.5958 145.698 47.9199C146.834 48.2373 147.499 49.4268 147.176 50.5695C147.133 50.7299 147.07 50.8769 146.997 51.0172L152.91 58.3846H158V55.8319L148.332 43.7835C147.964 43.8904 147.568 43.8971 147.176 43.7868C146.037 43.466 145.376 42.2766 145.691 41.1339C146.014 39.9878 147.193 39.3196 148.329 39.6437C149.465 39.9611 150.13 41.1506 149.811 42.2933C149.764 42.4536 149.704 42.6007 149.631 42.741L158 53.1723V45.4407L147.917 32.8743C147.548 32.9846 147.153 32.9879 146.761 32.8777C145.622 32.5569 144.96 31.3675 145.279 30.2248C145.598 29.0821 146.778 28.4138 147.917 28.7346C149.05 29.0553 149.714 30.2415 149.396 31.3875C149.352 31.5445 149.289 31.6949 149.216 31.8319ZM122.559 43.7634C121.609 47.7595 119.041 49.8077 114.542 50.1619C112.366 50.3323 110.18 50.4358 107.998 50.4459C94.9914 50.5027 81.985 50.5227 68.9753 50.5528H67.56V33.3087C65.4903 33.6128 63.4472 34.0137 61.4372 34.5249C55.5071 36.0251 49.8461 38.4509 44.5539 42.0427C41.6769 43.994 39.059 46.2493 36.8364 48.9457C36.6039 49.2297 36.3879 49.527 36.0159 50.0148C38.8397 48.1204 41.3513 46.2493 44.0423 44.6822C46.7166 43.1252 49.4973 41.7052 52.361 40.5491C55.2447 39.3797 58.2878 38.6046 61.4372 37.6022V50.4826H26.1656C26.325 50.1752 26.428 49.928 26.5709 49.7075C31.4545 42.1496 38.0823 36.553 45.9592 32.3965C50.9258 29.7737 56.0952 27.7823 61.4372 26.379C63.4538 25.8444 65.497 25.3967 67.56 25.0291V6.09774C67.9188 6.08104 68.2876 6.04094 68.6564 6.04094C80.3272 6.0376 91.9981 5.9975 103.669 6.06099C107.217 6.08104 110.792 6.18127 114.307 6.63568C118.473 7.17362 120.512 9.19172 121.044 13.3382C121.399 16.1515 121.306 19.0617 121.077 21.9018C120.861 24.528 118.645 25.7141 116.154 26.4091C115.934 26.4726 111.742 27.1809 109.636 27.6019C109.014 27.7255 108.572 27.8224 108.473 27.8725C108.556 27.9026 109.004 27.9962 109.636 28.1164C111.586 28.4973 115.29 29.1656 115.406 29.1923C119.127 30.1479 122.237 31.0968 122.801 34.7889C123.263 37.7926 123.263 40.7997 122.559 43.7634ZM138.954 50.486H127.419V19.0417H138.954V50.486ZM138.954 14.8016H127.459V6.10777H138.954V14.8016ZM80.3804 23.7695C80.3804 23.7695 80.3804 23.7695 80.3837 23.7695L80.3937 20.1743H80.387L80.3804 23.7695ZM80.387 20.1743L80.3804 23.7695C80.3804 23.7695 80.3804 23.7695 80.3837 23.7695L80.3937 20.1743H80.387ZM80.387 20.1743L80.3804 23.7695C80.3804 23.7695 80.3804 23.7695 80.3837 23.7695L80.3937 20.1743H80.387ZM80.387 20.1743L80.3804 23.7695C80.3804 23.7695 80.3804 23.7695 80.3837 23.7695L80.3937 20.1743H80.387ZM80.387 20.1743L80.3804 23.7695C80.3804 23.7695 80.3804 23.7695 80.3837 23.7695L80.3937 20.1743H80.387ZM80.387 20.1743L80.3804 23.7695C80.3804 23.7695 80.3804 23.7695 80.3837 23.7695L80.3937 20.1743H80.387ZM80.387 20.1743L80.3804 23.7695C80.3804 23.7695 80.3804 23.7695 80.3837 23.7695L80.3937 20.1743H80.387ZM80.387 20.1743L80.3804 23.7695C80.3804 23.7695 80.3804 23.7695 80.3837 23.7695L80.3937 20.1743H80.387ZM80.387 20.1743L80.3804 23.7695C80.3804 23.7695 80.3804 23.7695 80.3837 23.7695L80.3937 20.1743H80.387Z" fill="url(#paint19_linear)"/>
<path d="M61.5006 22.3525C61.5006 22.3559 61.5006 22.3559 61.5006 22.3592C61.4973 22.4428 61.474 22.5463 61.4375 22.6499V22.3592L61.5006 22.3525Z" fill="url(#paint20_linear)"/>
<path d="M80.393 16.5659V20.1744L80.383 23.7696L80.373 27.475L80.3797 23.7696L80.3863 20.1744L80.393 16.5659Z" fill="url(#paint21_linear)"/>
<path d="M80.393 20.1743L80.383 23.7695L80.373 27.4749L80.3797 23.7695L80.3863 20.1743H80.393Z" fill="url(#paint22_linear)"/>
<path d="M89.9935 21.9354C90.7311 21.9354 91.3922 22.2762 91.8207 22.8108C92.3091 22.6104 92.7277 22.2261 93.1828 21.9521C93.143 21.7817 93.0931 21.618 93.0433 21.451C91.8075 21.2204 90.5782 20.9364 89.3391 20.7192C89.2793 20.8963 89.153 21.0433 88.9902 21.1336C89.06 21.4443 89.1962 21.735 89.2926 22.039C89.5151 21.9722 89.7477 21.9354 89.9935 21.9354Z" fill="url(#paint23_linear)"/>
<path d="M91.9023 18.5371C91.6565 18.751 91.3442 18.8746 91.0651 19.0383C90.4572 19.3657 89.8559 19.7065 89.2546 20.044C89.1183 19.8402 88.8891 19.7065 88.6267 19.7065C88.2778 19.7065 87.9821 19.9471 87.8991 20.2712C87.4406 20.3013 86.9822 20.2679 86.5237 20.2879C86.5005 20.1509 86.4506 20.024 86.3809 19.9137C87.0088 19.5996 87.6167 19.2388 88.2479 18.928C88.2878 18.9214 88.3277 18.918 88.3675 18.9214C88.4473 18.9815 88.5502 19.0183 88.6599 19.0183C88.8924 19.0183 89.0884 18.8512 89.1383 18.6307C90.0585 18.6374 90.9788 18.487 91.889 18.4736L91.9023 18.5371Z" fill="url(#paint24_linear)"/>
<path d="M91.9941 23.0544C92.1868 23.3652 92.3064 23.7227 92.3397 24.1069C92.7217 24.1904 93.1602 24.147 93.5489 24.0768C93.5489 24.0768 93.5489 24.0768 93.5489 24.0735C93.6154 23.5122 94.0904 23.0778 94.6685 23.0778C94.7881 23.0778 94.901 23.0979 95.0107 23.1313C95.0339 23.1313 95.0605 23.1279 95.0838 23.1279C95.1369 22.884 95.4027 22.6969 95.3163 22.4296C95.127 22.2559 94.9077 22.0855 94.6419 22.0654C94.3695 22.4797 93.7383 22.5132 93.3961 22.179C92.8945 22.4163 92.5124 22.8473 91.9941 23.0544Z" fill="url(#paint25_linear)"/>
<path d="M93.5631 20.7627C93.4169 20.8663 93.2608 20.9732 93.2143 21.1603C91.9186 21.0133 90.6628 20.6558 89.3805 20.4152C89.3805 20.3818 89.3738 20.345 89.3672 20.3116C90.2409 19.7871 91.1545 19.3393 92.0349 18.8281C92.1977 19.062 92.4668 19.2157 92.7724 19.2157C92.8156 19.2157 92.8621 19.2124 92.902 19.2057C93.0914 19.7369 93.3737 20.2348 93.5631 20.7627Z" fill="url(#paint26_linear)"/>
<path d="M94.1768 25.2364C93.8712 25.0894 93.6419 24.8087 93.5655 24.4679C93.1768 24.3242 92.7483 24.4178 92.3397 24.4345C92.3164 24.8388 92.1935 25.213 91.9941 25.5371C92.5921 25.9815 93.22 26.3858 93.8213 26.8235C93.8479 26.8535 93.8811 26.8703 93.9144 26.8803C94.0207 26.77 94.1602 26.6932 94.3197 26.6698C94.3861 26.2321 94.3861 25.7844 94.4027 25.3433C94.3296 25.3132 94.2566 25.2798 94.1868 25.2397C94.1901 25.2397 94.1835 25.2397 94.1768 25.2364Z" fill="url(#paint27_linear)"/>
<path d="M94.0208 27.9528C93.8414 27.8259 93.7218 27.612 93.7218 27.3748C93.7218 27.2979 93.7351 27.2211 93.7584 27.1509C93.1371 26.6631 92.4594 26.2555 91.8348 25.771C91.5524 26.1285 91.1704 26.4025 90.7285 26.5462C90.785 27.1142 91.0474 27.6354 91.1072 28.2001C91.1239 28.2068 91.1371 28.2101 91.1538 28.2168H91.1571C91.6089 28.2435 91.9644 28.6211 91.9644 29.0788C91.9644 29.2024 91.9378 29.3194 91.8913 29.4263C91.8913 29.4597 91.888 29.4898 91.888 29.5199C92.1936 29.8039 92.4959 30.0979 92.8215 30.3618C92.9378 30.2783 93.0773 30.2282 93.2301 30.2282C93.3099 30.2282 93.3863 30.2416 93.456 30.2683C93.6454 29.5098 93.9278 28.7814 94.1238 28.0263C94.0906 28.0063 94.0607 27.9862 94.0308 27.9628C94.0275 27.9595 94.0241 27.9562 94.0208 27.9528Z" fill="url(#paint28_linear)"/>
<path d="M90.9847 34.946C90.9614 34.9093 90.9415 34.8725 90.9216 34.8324C90.9183 34.8324 90.9183 34.8291 90.9183 34.8291C90.8086 34.7054 90.7422 34.5451 90.7422 34.368C90.7422 33.9837 91.0511 33.673 91.4365 33.673C91.6192 33.673 91.7887 33.7465 91.9116 33.8635C91.9382 33.8668 91.9681 33.8701 91.9946 33.8768C92.2471 33.7833 92.483 33.653 92.7222 33.5293C93.2504 33.2587 93.7654 32.9613 94.3002 32.6974C94.3002 32.6974 94.3002 32.6974 94.3002 32.694C94.2703 32.6205 94.2537 32.537 94.2537 32.4535C94.2537 32.3699 94.2703 32.2897 94.2969 32.2162V32.0859C94.0876 31.9088 93.885 31.7251 93.6723 31.548C93.6325 31.5547 93.5926 31.5614 93.5528 31.568C93.4564 31.6182 93.3468 31.6482 93.2305 31.6482C93.0544 31.6482 92.8916 31.5847 92.7687 31.4745C92.6989 31.4645 92.6292 31.4544 92.5594 31.4478C91.4531 31.8387 90.3834 32.3365 89.2771 32.7274C89.2671 32.7375 89.2605 32.7441 89.2538 32.7542C89.2638 32.8076 89.2704 32.8611 89.2704 32.9146C89.2704 33.2921 89.0213 33.6129 88.6758 33.7164C88.7987 34.7556 88.9283 35.7947 89.008 36.8372C89.0379 37.0811 89.0445 37.3417 89.1342 37.5756C89.2007 37.5789 89.2638 37.5923 89.3236 37.6123C89.4199 37.5355 89.4631 37.3717 89.5495 37.2849L89.6658 37.0944L90.9847 34.946Z" fill="url(#paint29_linear)"/>
<path d="M100.008 23.2885C99.496 21.2637 98.1372 19.5329 96.4562 18.3401C94.4728 16.9568 91.9446 16.3487 89.5593 16.7831C87.8284 17.0671 86.1873 17.8657 84.8817 19.0451C85.1375 18.564 85.6092 18.2633 85.9946 17.8991C86.6325 17.3745 87.3368 16.9268 88.0843 16.5659H80.3934V20.1744L80.3834 23.7696L80.3734 27.475L80.3668 32.4735C80.3635 32.4735 80.3635 32.4735 80.3635 32.4735L80.3535 35.7312V39.8108H91.0111C90.9746 39.4466 90.9812 39.0758 91.0543 38.7049C91.0742 38.5712 91.1041 38.4409 91.144 38.314C91.144 38.3106 91.1473 38.3073 91.1473 38.3039C91.3998 37.345 92.0277 36.3326 93.2768 35.3904C93.2768 35.3904 93.2768 35.3871 93.2802 35.3871C93.3499 35.3336 93.423 35.2801 93.4961 35.2267C93.4994 35.2267 93.5027 35.2233 93.5027 35.2233C93.6057 35.1532 93.6988 35.0696 93.7851 34.9828C93.8649 34.9026 93.9512 34.8324 94.0376 34.7589C94.526 34.3412 95.0243 33.9303 95.5293 33.5293C96.9744 32.3499 98.3133 30.99 99.2435 29.3595C100.237 27.5285 100.513 25.3133 100.008 23.2885ZM98.7883 24.8555C98.7883 24.8588 98.785 24.8588 98.7817 24.8588C98.7119 24.8822 98.6322 24.8989 98.5525 24.8989C98.1538 24.8989 97.8316 24.5715 97.8316 24.1739C97.8316 24.0503 97.8615 23.9367 97.9179 23.8331C97.217 23.3185 96.4097 22.951 95.5625 22.7572C95.4761 22.9276 95.3864 23.1014 95.2967 23.2718C95.599 23.4722 95.7951 23.8197 95.7951 24.214C95.7951 24.792 95.3665 25.2665 94.8117 25.3366C94.8017 25.34 94.7918 25.34 94.7818 25.3433C94.7652 25.3433 94.7452 25.3467 94.7253 25.3467H94.7153C94.7751 25.6708 94.6522 25.9982 94.619 26.3256C94.6057 26.4493 94.6157 26.5829 94.6489 26.7032C94.8582 26.7734 95.0243 26.9404 95.0941 27.1509C95.114 27.1543 95.1306 27.1543 95.1506 27.1543C95.2369 27.1543 95.3266 27.1376 95.4097 27.1209C95.8947 27.024 96.3764 26.9304 96.8615 26.8335C97.0077 26.8034 97.1605 26.7734 97.2801 26.6765C97.2801 26.6765 97.2834 26.6765 97.2867 26.6731C97.3399 26.3557 97.6123 26.1185 97.9412 26.1185C98.31 26.1185 98.6056 26.4192 98.6056 26.7901C98.6056 27.1576 98.31 27.4583 97.9412 27.4583C97.6654 27.4583 97.4296 27.2879 97.3266 27.0473C97.2203 27.0206 97.1073 27.0473 96.9977 27.0741C96.3731 27.2178 95.7452 27.3648 95.1173 27.5118C95.1107 27.5552 95.0974 27.5953 95.0808 27.6354C95.5525 28.0397 96.0409 28.4206 96.5492 28.7781C96.7718 28.9385 97.0077 29.0955 97.2768 29.1423C97.3864 29.0588 97.5226 29.012 97.6688 29.012C98.0375 29.012 98.3332 29.3094 98.3332 29.6802C98.3332 30.0511 98.0375 30.3518 97.6688 30.3518C97.3 30.3518 97.0043 30.0511 97.0043 29.6802C97.0043 29.6134 97.0143 29.5466 97.0309 29.4864C96.9678 29.3896 96.8648 29.316 96.7685 29.2492C96.2336 28.8783 95.6954 28.5041 95.1572 28.1299C95.0509 28.0564 94.9379 27.9829 94.815 27.9662C94.7253 28.0263 94.619 28.0664 94.506 28.0798C94.3864 28.1967 94.31 28.3872 94.2602 28.5542C94.1772 28.8316 94.0941 29.1055 94.0144 29.3829C93.9047 29.7471 93.7951 30.1213 93.7785 30.4955C93.8782 30.6191 93.938 30.7728 93.938 30.9432C93.938 31.0301 93.9213 31.1136 93.8914 31.1905C94.0276 31.5179 94.2901 31.7952 94.619 31.8721C94.7021 31.832 94.7951 31.8086 94.8947 31.8086C95.2502 31.8086 95.5359 32.0993 95.5359 32.4535C95.5359 32.811 95.2502 33.1017 94.8947 33.1017C94.8117 33.1017 94.732 33.0849 94.6622 33.0549C94.5359 33.0849 94.413 33.105 94.2901 33.1351C93.619 33.2888 93.0177 33.653 92.4297 34.0105C92.3101 34.0806 92.1872 34.1575 92.1207 34.2811C92.1274 34.3112 92.1274 34.3379 92.1274 34.368C92.1274 34.7522 91.8184 35.0663 91.4363 35.0663C91.3965 35.0663 91.3566 35.063 91.3201 35.0563C91.3167 35.0563 91.3134 35.0596 91.3101 35.0596C91.1971 35.1264 91.1207 35.2467 91.0543 35.3603C90.629 36.062 90.2071 36.7636 89.7852 37.4653C89.7188 37.5756 89.6523 37.6892 89.649 37.8161V37.8295C89.7852 37.9698 89.8683 38.1636 89.8683 38.3775C89.8683 38.7884 89.5626 39.1259 89.1673 39.1693C89.1507 39.1727 89.1341 39.176 89.1175 39.176H89.0344C88.762 39.166 88.4962 39.019 88.3799 38.765C88.3799 38.7617 88.3799 38.7617 88.3766 38.7584C88.3168 38.6448 88.2803 38.5144 88.2803 38.3775C88.2803 38.0333 88.4995 37.7359 88.8085 37.6257C88.6723 36.3393 88.5394 35.0462 88.4032 33.7565C88.1474 33.7465 87.9215 33.6195 87.7786 33.4291C87.5494 33.4792 87.3334 33.5795 87.1474 33.7231C87.1607 33.7766 87.1707 33.83 87.1707 33.8902C87.1707 34.2444 86.8849 34.5284 86.5328 34.5284C86.2903 34.5284 86.081 34.3947 85.9747 34.1942C85.9713 34.1942 85.9713 34.1909 85.9713 34.1909C85.9547 34.1675 85.9414 34.1441 85.9315 34.1174C85.9016 34.0472 85.8916 33.9704 85.8983 33.8969C85.8983 33.8935 85.8983 33.8935 85.8983 33.8935V33.8902C85.8983 33.536 86.1806 33.2487 86.5328 33.2487C86.7089 33.2487 86.8683 33.3222 86.9813 33.4358C87.2205 33.4124 87.453 33.3389 87.659 33.2153C87.6258 33.125 87.6059 33.0248 87.6059 32.9212C87.6059 32.7608 87.6524 32.6105 87.7288 32.4869C87.6956 32.4501 87.6623 32.4167 87.6291 32.3866C86.7255 31.5881 85.8185 30.7862 84.9116 29.9843C84.7986 29.8841 84.6823 29.7805 84.5395 29.7304C84.4365 29.7805 84.3235 29.8072 84.2039 29.8072C83.7654 29.8072 83.4133 29.4497 83.4133 29.012C83.4133 28.571 83.7654 28.2168 84.2039 28.2168C84.4033 28.2168 84.5827 28.2903 84.7222 28.4139H84.7255C84.9448 28.5175 85.1607 28.6244 85.38 28.5409C85.6424 28.4406 85.7421 28.1299 85.8783 27.886C86.2438 27.2278 87.1341 26.9237 87.8218 27.2244C88.0577 26.8669 88.2936 26.5094 88.5294 26.1519C87.9879 25.7175 87.6424 25.0493 87.6424 24.3009C87.6424 24.2173 87.6457 24.1338 87.6557 24.0536C87.4065 24.0068 87.1574 23.9601 86.9082 23.9166C86.8949 23.9634 86.8783 24.0102 86.8584 24.0536C86.7388 24.4512 86.3767 24.7352 85.9448 24.7352C85.7022 24.7352 85.4763 24.6417 85.3102 24.4913C84.988 24.9491 84.6657 25.4068 84.3435 25.8612C84.2671 25.9681 84.1906 26.0784 84.1641 26.202C84.2504 26.3089 84.3036 26.4459 84.3036 26.5963C84.3036 26.917 84.0644 27.181 83.7554 27.2178C83.7322 27.2211 83.7056 27.2244 83.679 27.2244C83.3368 27.2244 83.0578 26.9438 83.0578 26.5963C83.0578 26.5395 83.0644 26.4827 83.081 26.4292C83.081 26.4259 83.081 26.4192 83.0844 26.4159C83.1608 26.1586 83.4 25.9715 83.679 25.9715C83.7322 25.9715 83.7853 25.9782 83.8352 25.9915C83.988 25.908 84.0976 25.7543 84.2006 25.6073C84.38 25.34 84.5594 25.076 84.7421 24.8121C84.8617 24.635 84.9846 24.4546 85.0312 24.2474C85.0411 24.2006 85.0478 24.1538 85.0544 24.1104C85.0145 24.0068 84.9946 23.8932 84.9946 23.7796C84.9946 23.3553 85.267 22.9978 85.6458 22.8708C85.6524 22.8708 85.6557 22.8675 85.6624 22.8641C85.7521 22.8374 85.8484 22.824 85.9448 22.824C86.0577 22.824 86.1674 22.8407 86.267 22.8775C86.2703 22.8808 86.277 22.8808 86.2836 22.8842C86.4929 22.9644 86.669 23.1181 86.7786 23.3152C86.8351 23.3787 86.8916 23.4422 86.9514 23.499C87.1507 23.6961 87.4464 23.8531 87.7055 23.7562C87.8683 23.0479 88.3534 22.4632 88.9945 22.1591C88.9347 21.835 88.8351 21.5243 88.6955 21.2269C88.6723 21.2303 88.649 21.2303 88.6258 21.2303C88.2337 21.2303 87.9148 20.9296 87.875 20.5487C87.4132 20.4718 86.8982 20.4184 86.5295 20.699C86.5129 20.7124 86.4996 20.7224 86.4863 20.7358C86.3634 21.12 86.0046 21.394 85.5826 21.394C85.0577 21.394 84.6325 20.9663 84.6325 20.4384C84.6325 19.9105 85.0577 19.4828 85.5826 19.4828C85.772 19.4828 85.9481 19.5363 86.0976 19.6332C86.1142 19.6332 86.1341 19.6332 86.1507 19.6298C86.3468 19.6131 86.5228 19.5196 86.6956 19.4294C87.0809 19.2255 87.463 19.0217 87.8451 18.8212C87.9647 18.7578 88.0876 18.6909 88.1673 18.5874C88.164 18.564 88.164 18.5439 88.164 18.5205C88.164 18.2466 88.3832 18.026 88.659 18.026C88.8317 18.026 88.9846 18.1162 89.0709 18.2532C89.0876 18.2566 89.1008 18.2633 89.1175 18.2699C89.3334 18.3468 89.5693 18.3334 89.7952 18.3167C90.3699 18.2766 90.9447 18.2365 91.5161 18.1964C91.6324 18.1898 91.7486 18.1797 91.845 18.1162C91.8715 18.0962 91.8948 18.0762 91.9114 18.0528C91.9446 17.9392 91.9978 17.8389 92.0709 17.7487C92.0742 17.742 92.0775 17.7387 92.0842 17.732C92.247 17.5349 92.4961 17.4079 92.7719 17.4079C93.2669 17.4079 93.6689 17.8122 93.6689 18.31C93.6689 18.3368 93.6689 18.3635 93.6655 18.3902C93.6655 18.3969 93.6655 18.4036 93.6622 18.4136C93.6356 18.6709 93.4994 18.8948 93.3034 19.0384C93.2901 19.0685 93.2768 19.0952 93.2702 19.1286C93.2303 19.2823 93.2968 19.4394 93.3632 19.5864C93.4629 19.8102 93.5625 20.0341 93.6622 20.258C93.722 20.3849 93.7818 20.5152 93.8948 20.5954C94.0077 20.6723 94.1506 20.6857 94.2801 20.7324C94.5957 20.8393 94.825 21.1634 94.8217 21.5009C94.8217 21.6112 94.8017 21.7281 94.8615 21.8183C94.9114 21.8952 95.0077 21.9319 95.0974 21.9453C95.6157 22.0322 96.1472 21.551 96.1273 21.0265C96.021 20.9095 95.9512 20.7525 95.9512 20.5821C95.9512 20.2212 96.2402 19.9305 96.599 19.9305C96.7552 19.9305 96.898 19.9873 97.011 20.0809C97.0143 20.0842 97.0143 20.0842 97.0176 20.0876C97.3 20.2981 97.3299 20.7926 97.0641 21.0298C97.0608 21.0365 97.0542 21.0398 97.0475 21.0465C97.0442 21.0498 97.0376 21.0532 97.0342 21.0565C96.9312 21.1367 96.805 21.1802 96.6821 21.2236C96.6821 21.2269 96.6821 21.2269 96.6788 21.2269C96.5791 21.2637 96.4794 21.3038 96.3964 21.3673C96.0841 21.6078 96.0907 22.1124 96.31 22.4431C96.5259 22.7739 96.8881 22.9744 97.2369 23.1582C97.5459 23.3252 97.8681 23.4923 98.2136 23.5357C98.3166 23.4789 98.4296 23.4488 98.5525 23.4488C98.8515 23.4488 99.1073 23.6326 99.2169 23.8899C99.2169 23.8932 99.2169 23.8932 99.2169 23.8966C99.2535 23.9801 99.2734 24.0737 99.2734 24.1739C99.2734 24.488 99.0707 24.7586 98.7883 24.8555Z" fill="url(#paint30_linear)"/>
<path d="M88.7748 28.5341C89.2931 28.5742 89.7781 28.778 90.2997 28.778C90.3894 28.5408 90.5754 28.3537 90.8146 28.2634C90.7249 27.7088 90.5522 27.1709 90.4259 26.6229C90.2864 26.6496 90.1435 26.663 89.9974 26.663C89.5489 26.663 89.1303 26.536 88.7715 26.3188C88.5755 26.6429 88.3263 26.9336 88.1535 27.2711C88.0971 27.4315 88.2731 27.5284 88.3529 27.6386C88.5888 27.8792 88.6917 28.2133 88.7748 28.5341Z" fill="url(#paint31_linear)"/>
<path d="M89.1337 32.4599C89.7583 32.2393 90.3762 31.9921 90.9908 31.7482C91.436 31.5711 91.8812 31.394 92.3064 31.1768C92.3861 31.1367 92.4692 31.09 92.5323 31.0265C92.529 30.9997 92.5257 30.9697 92.5257 30.9429C92.5257 30.8293 92.5522 30.7191 92.6021 30.6255C92.5456 30.5153 92.4459 30.4184 92.3496 30.3348C92.1636 30.1778 91.9775 30.0174 91.7915 29.8604C91.7582 29.8303 91.7217 29.8002 91.6785 29.7869C91.6553 29.7802 91.632 29.7802 91.6054 29.7802C91.4659 29.8838 91.2898 29.9439 91.1005 29.9439C90.6387 29.9439 90.2633 29.5797 90.24 29.122C90.2367 29.1186 90.2367 29.1153 90.2334 29.1119C90.2134 29.0952 90.1869 29.0886 90.1603 29.0819C89.6919 28.9816 89.2234 28.9015 88.7484 28.8413C88.6487 29.3692 88.3198 29.847 87.8613 30.1277C87.961 30.4651 88.0573 30.8026 88.157 31.1434C88.2334 31.404 88.3065 31.6646 88.3829 31.9253C88.3995 31.9787 88.4161 32.0322 88.4294 32.0856H88.4327C88.7284 32.0823 88.9842 32.2327 89.1337 32.4599Z" fill="url(#paint32_linear)"/>
<path d="M86.2602 29.9243C85.8748 29.6938 85.7253 29.2494 85.6456 28.8317C85.423 28.8251 85.2004 28.8384 84.9811 28.8718C84.9911 28.9153 84.9944 28.9621 84.9944 29.0122C84.9944 29.1926 84.9346 29.3597 84.8317 29.4933C84.8283 29.5067 84.825 29.52 84.8184 29.5334C85.8781 30.4155 86.8815 31.3677 87.9346 32.2565C87.9944 32.2131 88.0575 32.173 88.1306 32.1462C87.9911 31.498 87.7286 30.8766 87.6057 30.2217C87.1406 30.2551 86.6389 30.2351 86.2602 29.9243Z" fill="url(#paint33_linear)"/>
<path d="M109.635 27.6016V28.1161C109.004 27.9958 108.556 27.9023 108.473 27.8722C108.572 27.8221 109.014 27.7252 109.635 27.6016Z" fill="url(#paint34_linear)"/>
<path d="M109.635 27.602C109.013 27.7256 108.571 27.8225 108.472 27.8726C108.555 27.9027 109.003 27.9963 109.635 28.1165V33.5561C109.635 37.0109 106.851 39.8108 103.415 39.8108H93.1133C93.1133 39.8108 93.1133 39.8075 93.1166 39.8008C93.193 39.6171 94.3159 37.0476 98.4321 36.4496C98.6713 36.4128 98.9205 36.3861 99.1829 36.366C99.4819 36.3426 99.7942 36.3293 100.12 36.3293C101.339 36.2391 102.017 35.935 102.392 35.6143C102.555 35.4739 102.661 35.3303 102.731 35.1966C102.864 34.9393 102.844 34.6286 102.688 34.388C102.688 34.388 102.688 34.3847 102.685 34.3847C102.635 34.3012 102.601 34.2143 102.582 34.0973C102.532 33.8 102.631 33.4993 102.827 33.2721C102.964 33.115 103.09 32.9613 103.103 32.7508C103.136 32.4033 102.847 32.1561 102.618 31.9422C102.964 31.715 103.402 31.4511 103.445 30.9933C103.469 30.7127 103.223 30.549 103.05 30.3752C103.239 29.9642 103.598 29.6736 103.94 29.3962C104.206 29.2091 104.528 28.9452 104.435 28.5776C103.797 27.4316 102.817 26.4994 102.316 25.2732C102.007 24.5515 101.881 23.7729 101.671 23.0178C101.326 21.8618 100.831 20.7425 100.133 19.7534C99.1663 18.3936 97.8441 17.3144 96.3591 16.5659H103.415C106.851 16.5659 109.635 19.3659 109.635 22.8207V27.602Z" fill="url(#paint35_linear)"/>
<path d="M12.7075 64.429C12.558 63.9345 12.3188 63.5336 11.9933 63.2162C11.661 62.9021 11.2225 62.6749 10.7009 62.5312C10.176 62.3875 9.53817 62.3174 8.78735 62.3174H4.20273C3.45524 62.3174 2.81406 62.3842 2.2958 62.5312C1.76425 62.6749 1.34233 62.9021 1.01011 63.2162C0.684534 63.5302 0.445337 63.9345 0.289194 64.429C0.133051 64.9302 0.0566406 65.5383 0.0566406 66.25V68.8127C0.0566406 69.5311 0.133051 70.1359 0.289194 70.6337C0.445337 71.1416 0.684534 71.5459 1.01011 71.8599C1.34233 72.1673 1.76757 72.3945 2.2958 72.5382C2.81406 72.6752 3.45192 72.752 4.20273 72.752H8.78403C9.53152 72.752 10.1727 72.6752 10.6976 72.5382C11.2225 72.3945 11.6577 72.1673 11.9899 71.8599C12.3155 71.5459 12.5547 71.1416 12.7042 70.6337C12.8471 70.1325 12.9301 69.5311 12.9301 68.8127V66.25C12.9334 65.5383 12.8504 64.9302 12.7075 64.429ZM10.6644 68.649C10.6644 69.0399 10.6312 69.3607 10.5614 69.6213C10.5016 69.8886 10.3986 70.0924 10.2491 70.2528C10.0996 70.4032 9.90029 70.5134 9.64448 70.5736C9.39199 70.6504 9.07971 70.6771 8.69101 70.6771H4.29243C3.91038 70.6771 3.59145 70.6504 3.33896 70.5736C3.08648 70.5134 2.88382 70.4032 2.74097 70.2528C2.59147 70.0958 2.48848 69.8886 2.42204 69.6213C2.35892 69.3607 2.3257 69.0399 2.3257 68.649V66.4104C2.3257 66.0261 2.35892 65.6987 2.42204 65.4381C2.48848 65.1775 2.59147 64.967 2.74097 64.8066C2.88382 64.6562 3.0898 64.546 3.33896 64.4858C3.59145 64.4257 3.91038 64.3889 4.29243 64.3889H8.69101C9.07971 64.3889 9.39199 64.4224 9.64448 64.4858C9.90361 64.546 10.0996 64.6562 10.2491 64.8066C10.3986 64.9636 10.5016 65.1775 10.5614 65.4381C10.6312 65.6987 10.6644 66.0261 10.6644 66.4104V68.649Z" fill="#662D91"/>
<path d="M43.1683 67.2224C42.7331 66.7847 42.0852 66.5575 41.2215 66.5575H35.6668C35.1551 66.5575 34.9027 66.2835 34.9027 65.7222V65.2143C34.9027 64.9604 34.9558 64.7566 35.0787 64.6129C35.195 64.4625 35.3977 64.3857 35.6767 64.3857H43.1051C43.3178 64.3857 43.4307 64.2754 43.4307 64.0582V62.6416C43.4307 62.421 43.3144 62.3208 43.1051 62.3208H35.2548C34.3545 62.3208 33.6967 62.5413 33.2681 62.9924C32.8462 63.4368 32.627 64.0181 32.627 64.7465V65.8358C32.627 66.6577 32.8462 67.2959 33.2814 67.7336C33.7166 68.178 34.3645 68.3985 35.2282 68.3985H40.7829C41.2946 68.3985 41.5537 68.6792 41.5537 69.2271V69.8419C41.5537 70.1025 41.4939 70.2996 41.371 70.4567C41.2547 70.6004 41.0587 70.6772 40.7663 70.6772H32.9891C32.7632 70.6772 32.6502 70.7875 32.6502 71.0046V72.4146C32.6502 72.6352 32.7665 72.7488 32.9891 72.7488H41.1949C42.0952 72.7488 42.753 72.5216 43.1816 72.0772C43.6035 71.6261 43.8227 71.0347 43.8227 70.3164V69.1235C43.8227 68.2983 43.6035 67.6701 43.1683 67.2224Z" fill="#662D91"/>
<path d="M30.2017 62.6616C30.0256 62.4277 29.6834 62.3208 29.1585 62.3208H27.5772C27.3646 62.3208 27.1752 62.3342 27.019 62.3609C26.8695 62.3876 26.7333 62.4444 26.6104 62.5313C26.4941 62.6148 26.3845 62.7284 26.2981 62.8721C26.2018 63.0158 26.1088 63.2062 26.0124 63.4468L22.9228 70.6004C22.8896 70.6906 22.8198 70.7374 22.7268 70.7374H22.5507C22.4411 70.7374 22.3813 70.6906 22.3381 70.6004L19.2617 63.4501C19.1587 63.2096 19.0657 63.0191 18.9694 62.8754C18.873 62.7318 18.7734 62.6148 18.6505 62.5346C18.5275 62.4444 18.398 62.391 18.2352 62.3642C18.0857 62.3375 17.8963 62.3241 17.677 62.3241H16.0625C15.5376 62.3241 15.1854 62.4344 15.006 62.6649C14.8233 62.8988 14.7402 63.3031 14.7402 63.8644V72.418C14.7402 72.6385 14.8565 72.7521 15.0791 72.7521H16.5907C16.81 72.7521 16.9163 72.6352 16.9163 72.418V64.6463C16.9163 64.5427 16.9561 64.4959 17.0325 64.4959H17.1688C17.2651 64.4959 17.3249 64.536 17.3581 64.6196L20.3481 71.2887C20.471 71.556 20.5873 71.7832 20.7169 71.9669C20.8331 72.1507 20.9693 72.3011 21.1188 72.418C21.255 72.5416 21.4178 72.6218 21.6105 72.6719C21.7932 72.7187 21.9992 72.7555 22.2517 72.7555H22.966C23.2118 72.7555 23.4211 72.722 23.6072 72.6719C23.7899 72.6252 23.956 72.5416 24.0988 72.418C24.2417 72.3011 24.3779 72.1507 24.4942 71.9669C24.6237 71.7832 24.74 71.556 24.8629 71.2887L27.8596 64.6196C27.8861 64.536 27.9493 64.4959 28.0489 64.4959H28.1785C28.2549 64.4959 28.3014 64.5427 28.3014 64.6463V72.418C28.3014 72.6385 28.4044 72.7521 28.6203 72.7521H30.1386C30.3645 72.7521 30.4708 72.6352 30.4708 72.418V63.8644C30.4675 63.2998 30.3844 62.8955 30.2017 62.6616Z" fill="#662D91"/>
<path d="M157.957 78.9995V76.6606H21.9668L23.6212 78.9995H157.957Z" fill="url(#paint36_linear)"/>
<path d="M21.5838 78.9995L19.9293 76.6606H15.3945L17.049 78.9995H21.5838Z" fill="#8E2F88"/>
<path d="M3.79679 78.9995L2.14233 76.6606H0.152344V78.9995H3.79679Z" fill="#8E2F88"/>
<path d="M15.0133 78.9995L13.3589 76.6606H4.17969L5.83414 78.9995H15.0133Z" fill="#8E2F88"/>
<defs>
<linearGradient id="paint0_linear" x1="52.3695" y1="-10.0772" x2="102.393" y2="76.0722" gradientUnits="userSpaceOnUse">
<stop stop-color="#93278F"/>
<stop offset="1" stop-color="#29ABE2"/>
</linearGradient>
<linearGradient id="paint1_linear" x1="3.15477" y1="28.8097" x2="4.21575" y2="30.6368" gradientUnits="userSpaceOnUse">
<stop stop-color="#93278F"/>
<stop offset="1" stop-color="#29ABE2"/>
</linearGradient>
<linearGradient id="paint2_linear" x1="4.37376" y1="21.2918" x2="5.43494" y2="23.1193" gradientUnits="userSpaceOnUse">
<stop stop-color="#93278F"/>
<stop offset="1" stop-color="#29ABE2"/>
</linearGradient>
<linearGradient id="paint3_linear" x1="13.0395" y1="23.213" x2="14.1005" y2="25.0402" gradientUnits="userSpaceOnUse">
<stop stop-color="#93278F"/>
<stop offset="1" stop-color="#29ABE2"/>
</linearGradient>
<linearGradient id="paint4_linear" x1="12.5388" y1="13.0502" x2="13.5998" y2="14.8774" gradientUnits="userSpaceOnUse">
<stop stop-color="#93278F"/>
<stop offset="1" stop-color="#29ABE2"/>
</linearGradient>
<linearGradient id="paint5_linear" x1="24.4996" y1="13.9121" x2="25.5616" y2="15.7412" gradientUnits="userSpaceOnUse">
<stop stop-color="#93278F"/>
<stop offset="1" stop-color="#29ABE2"/>
</linearGradient>
<linearGradient id="paint6_linear" x1="4.37376" y1="21.2918" x2="5.43494" y2="23.1193" gradientUnits="userSpaceOnUse">
<stop stop-color="#93278F"/>
<stop offset="1" stop-color="#29ABE2"/>
</linearGradient>
<linearGradient id="paint7_linear" x1="3.15477" y1="28.8097" x2="4.21575" y2="30.6368" gradientUnits="userSpaceOnUse">
<stop stop-color="#93278F"/>
<stop offset="1" stop-color="#29ABE2"/>
</linearGradient>
<linearGradient id="paint8_linear" x1="13.0395" y1="23.213" x2="14.1005" y2="25.0402" gradientUnits="userSpaceOnUse">
<stop stop-color="#93278F"/>
<stop offset="1" stop-color="#29ABE2"/>
</linearGradient>
<linearGradient id="paint9_linear" x1="24.4996" y1="13.9121" x2="25.5616" y2="15.7412" gradientUnits="userSpaceOnUse">
<stop stop-color="#93278F"/>
<stop offset="1" stop-color="#29ABE2"/>
</linearGradient>
<linearGradient id="paint10_linear" x1="25.4405" y1="5.95084" x2="26.5014" y2="7.77798" gradientUnits="userSpaceOnUse">
<stop stop-color="#93278F"/>
<stop offset="1" stop-color="#29ABE2"/>
</linearGradient>
<linearGradient id="paint11_linear" x1="25.4405" y1="5.95084" x2="26.5014" y2="7.77798" gradientUnits="userSpaceOnUse">
<stop stop-color="#93278F"/>
<stop offset="1" stop-color="#29ABE2"/>
</linearGradient>
<linearGradient id="paint12_linear" x1="12.5388" y1="13.0502" x2="13.5998" y2="14.8774" gradientUnits="userSpaceOnUse">
<stop stop-color="#93278F"/>
<stop offset="1" stop-color="#29ABE2"/>
</linearGradient>
<linearGradient id="paint13_linear" x1="144.672" y1="49.0797" x2="145.733" y2="50.9065" gradientUnits="userSpaceOnUse">
<stop stop-color="#93278F"/>
<stop offset="1" stop-color="#29ABE2"/>
</linearGradient>
<linearGradient id="paint14_linear" x1="147.203" y1="40.7293" x2="148.264" y2="42.5566" gradientUnits="userSpaceOnUse">
<stop stop-color="#93278F"/>
<stop offset="1" stop-color="#29ABE2"/>
</linearGradient>
<linearGradient id="paint15_linear" x1="146.853" y1="29.8985" x2="147.914" y2="31.7251" gradientUnits="userSpaceOnUse">
<stop stop-color="#93278F"/>
<stop offset="1" stop-color="#29ABE2"/>
</linearGradient>
<linearGradient id="paint16_linear" x1="147.203" y1="40.7293" x2="148.264" y2="42.5566" gradientUnits="userSpaceOnUse">
<stop stop-color="#93278F"/>
<stop offset="1" stop-color="#29ABE2"/>
</linearGradient>
<linearGradient id="paint17_linear" x1="144.672" y1="49.0797" x2="145.733" y2="50.9065" gradientUnits="userSpaceOnUse">
<stop stop-color="#93278F"/>
<stop offset="1" stop-color="#29ABE2"/>
</linearGradient>
<linearGradient id="paint18_linear" x1="146.853" y1="29.8985" x2="147.914" y2="31.7251" gradientUnits="userSpaceOnUse">
<stop stop-color="#93278F"/>
<stop offset="1" stop-color="#29ABE2"/>
</linearGradient>
<linearGradient id="paint19_linear" x1="46.6814" y1="-27.106" x2="111.874" y2="85.168" gradientUnits="userSpaceOnUse">
<stop stop-color="#93278F"/>
<stop offset="1" stop-color="#29ABE2"/>
</linearGradient>
<linearGradient id="paint20_linear" x1="61.3999" y1="22.3821" x2="61.5261" y2="22.5995" gradientUnits="userSpaceOnUse">
<stop stop-color="#93278F"/>
<stop offset="1" stop-color="#29ABE2"/>
</linearGradient>
<linearGradient id="paint21_linear" x1="78.0357" y1="17.9351" x2="82.7667" y2="26.0869" gradientUnits="userSpaceOnUse">
<stop stop-color="#93278F"/>
<stop offset="1" stop-color="#29ABE2"/>
</linearGradient>
<linearGradient id="paint22_linear" x1="78.8113" y1="21.0895" x2="81.9774" y2="26.5449" gradientUnits="userSpaceOnUse">
<stop stop-color="#93278F"/>
<stop offset="1" stop-color="#29ABE2"/>
</linearGradient>
<linearGradient id="paint23_linear" x1="90.2692" y1="20.1816" x2="91.8141" y2="22.8422" gradientUnits="userSpaceOnUse">
<stop stop-color="#93278F"/>
<stop offset="1" stop-color="#29ABE2"/>
</linearGradient>
<linearGradient id="paint24_linear" x1="88.7294" y1="18.55" x2="89.5394" y2="19.9448" gradientUnits="userSpaceOnUse">
<stop stop-color="#93278F"/>
<stop offset="1" stop-color="#29ABE2"/>
</linearGradient>
<linearGradient id="paint25_linear" x1="93.2467" y1="22.2553" x2="94.1123" y2="23.746" gradientUnits="userSpaceOnUse">
<stop stop-color="#93278F"/>
<stop offset="1" stop-color="#29ABE2"/>
</linearGradient>
<linearGradient id="paint26_linear" x1="90.9125" y1="19.412" x2="92.2521" y2="21.719" gradientUnits="userSpaceOnUse">
<stop stop-color="#93278F"/>
<stop offset="1" stop-color="#29ABE2"/>
</linearGradient>
<linearGradient id="paint27_linear" x1="92.5532" y1="24.313" x2="94.0255" y2="26.8485" gradientUnits="userSpaceOnUse">
<stop stop-color="#93278F"/>
<stop offset="1" stop-color="#29ABE2"/>
</linearGradient>
<linearGradient id="paint28_linear" x1="91.4628" y1="25.9881" x2="93.826" y2="30.0579" gradientUnits="userSpaceOnUse">
<stop stop-color="#93278F"/>
<stop offset="1" stop-color="#29ABE2"/>
</linearGradient>
<linearGradient id="paint29_linear" x1="90.2019" y1="32.1964" x2="92.3364" y2="35.8724" gradientUnits="userSpaceOnUse">
<stop stop-color="#93278F"/>
<stop offset="1" stop-color="#29ABE2"/>
</linearGradient>
<linearGradient id="paint30_linear" x1="81.4051" y1="15.9785" x2="94.1763" y2="37.9729" gradientUnits="userSpaceOnUse">
<stop stop-color="#93278F"/>
<stop offset="1" stop-color="#29ABE2"/>
</linearGradient>
<linearGradient id="paint31_linear" x1="88.8469" y1="26.2751" x2="90.3002" y2="28.7779" gradientUnits="userSpaceOnUse">
<stop stop-color="#93278F"/>
<stop offset="1" stop-color="#29ABE2"/>
</linearGradient>
<linearGradient id="paint32_linear" x1="88.9963" y1="28.6999" x2="90.9069" y2="31.9903" gradientUnits="userSpaceOnUse">
<stop stop-color="#93278F"/>
<stop offset="1" stop-color="#29ABE2"/>
</linearGradient>
<linearGradient id="paint33_linear" x1="85.4742" y1="28.5866" x2="87.6888" y2="32.4006" gradientUnits="userSpaceOnUse">
<stop stop-color="#93278F"/>
<stop offset="1" stop-color="#29ABE2"/>
</linearGradient>
<linearGradient id="paint34_linear" x1="108.967" y1="27.5852" x2="109.366" y2="28.2725" gradientUnits="userSpaceOnUse">
<stop stop-color="#93278F"/>
<stop offset="1" stop-color="#29ABE2"/>
</linearGradient>
<linearGradient id="paint35_linear" x1="94.131" y1="17.8597" x2="106.425" y2="39.0321" gradientUnits="userSpaceOnUse">
<stop stop-color="#93278F"/>
<stop offset="1" stop-color="#29ABE2"/>
</linearGradient>
<linearGradient id="paint36_linear" x1="72.9636" y1="47.0495" x2="108.269" y2="107.853" gradientUnits="userSpaceOnUse">
<stop stop-color="#93278F"/>
<stop offset="1" stop-color="#29ABE2"/>
</linearGradient>
</defs>
</svg>
