<svg width="231" height="16" viewBox="0 0 231 16" fill="none" xmlns="http://www.w3.org/2000/svg">
<path d="M84.4955 7.51858C83.8589 6.84252 82.9162 6.5045 81.6577 6.5045H73.5478C72.7994 6.5045 72.4204 6.0794 72.4204 5.2292V4.45584C72.4204 4.06147 72.5079 3.74905 72.6828 3.51858C72.8529 3.29323 73.1493 3.17543 73.5672 3.17543H84.408C84.7287 3.17543 84.8842 3.00641 84.8842 2.6735V0.512172C84.8842 0.174144 84.7287 0.0102539 84.408 0.0102539H72.9404C71.6284 0.0102539 70.6614 0.353404 70.0394 1.03458C69.4175 1.72088 69.1113 2.61205 69.1113 3.72344V5.38797C69.1113 6.6479 69.4223 7.61589 70.0589 8.29194C70.6906 8.968 71.643 9.30602 72.8966 9.30602H81.0114C81.7549 9.30602 82.1339 9.73112 82.1339 10.5813V11.5186C82.1339 11.9129 82.0464 12.2254 81.8715 12.4558C81.7014 12.6863 81.405 12.799 80.9871 12.799H69.6264C69.2911 12.799 69.1308 12.968 69.1308 13.3009V15.4622C69.1308 15.8003 69.296 15.9642 69.6264 15.9642H81.614C82.9259 15.9642 83.8929 15.6261 84.5149 14.9398C85.1369 14.2484 85.443 13.3572 85.443 12.251V10.4225C85.4479 9.16262 85.1271 8.19463 84.4955 7.51858Z" fill="#333333"/>
<path d="M106.217 3.24175C105.998 2.47863 105.653 1.86404 105.167 1.3826C104.686 0.906292 104.059 0.552898 103.287 0.332667C102.514 0.112437 101.581 0.00488281 100.483 0.00488281H93.7967C92.7034 0.00488281 91.7753 0.117559 91.0076 0.332667C90.2398 0.552898 89.6178 0.901171 89.1368 1.3826C88.6557 1.86404 88.2961 2.47863 88.0775 3.24175C87.8539 4.00488 87.7422 4.92677 87.7422 6.02793V9.9511C87.7422 11.0471 87.8539 11.9793 88.0775 12.7424C88.2961 13.5106 88.6509 14.1355 89.1368 14.6118C89.6178 15.0932 90.2447 15.4364 91.0076 15.6515C91.7753 15.8615 92.7034 15.969 93.7967 15.969H100.483C101.581 15.969 102.514 15.8666 103.287 15.6515C104.059 15.4364 104.686 15.0932 105.167 14.6118C105.648 14.1355 105.998 13.5106 106.217 12.7424C106.435 11.9793 106.542 11.0471 106.542 9.9511V6.02793C106.542 4.92677 106.435 3.99976 106.217 3.24175ZM103.233 9.69502C103.233 10.2891 103.18 10.7859 103.092 11.1854C102.995 11.59 102.844 11.9076 102.626 12.1432C102.407 12.3788 102.12 12.5426 101.751 12.6451C101.382 12.7424 100.92 12.7936 100.357 12.7936H93.9279C93.3642 12.7936 92.8978 12.7424 92.5333 12.6451C92.1689 12.5426 91.8725 12.3788 91.6635 12.1432C91.4449 11.9076 91.2894 11.59 91.1922 11.1854C91.0999 10.7859 91.0513 10.284 91.0513 9.69502V6.27376C91.0513 5.67965 91.0999 5.18286 91.1922 4.78337C91.2894 4.37876 91.4449 4.06122 91.6635 3.82562C91.8725 3.59003 92.1689 3.42613 92.5333 3.32882C92.9026 3.22639 93.3691 3.1803 93.9279 3.1803H100.357C100.92 3.1803 101.387 3.23151 101.751 3.32882C102.12 3.42613 102.407 3.59515 102.626 3.82562C102.844 4.06122 102.995 4.37876 103.092 4.78337C103.185 5.18286 103.233 5.68477 103.233 6.27376V9.69502Z" fill="#333333"/>
<path d="M124.131 12.727H115.365C114.807 12.727 114.335 12.6809 113.971 12.5785C113.606 12.4761 113.315 12.3122 113.101 12.0766C112.882 11.841 112.732 11.5183 112.635 11.1188C112.537 10.7142 112.494 10.2123 112.494 9.60283V0.506801C112.494 0.168773 112.333 0.00488281 112.013 0.00488281H109.675C109.34 0.00488281 109.18 0.168773 109.18 0.506801V9.94598C109.18 11.042 109.291 11.9742 109.515 12.7373C109.738 13.5055 110.088 14.1304 110.574 14.6067C111.055 15.0881 111.682 15.4313 112.445 15.6464C113.213 15.8563 114.146 15.9639 115.234 15.9639H124.131C124.447 15.9639 124.603 15.8 124.603 15.462V13.2289C124.603 12.8909 124.447 12.727 124.131 12.727Z" fill="#333333"/>
<path d="M144.078 0.00488281H141.721C141.401 0.00488281 141.245 0.168773 141.245 0.506801V9.60283C141.245 10.2123 141.206 10.7142 141.114 11.1188C141.027 11.5183 140.876 11.8461 140.657 12.0766C140.443 12.3122 140.147 12.4761 139.783 12.5785C139.413 12.6809 138.947 12.727 138.388 12.727H132.392C131.833 12.727 131.367 12.6809 130.997 12.5785C130.628 12.4761 130.341 12.3122 130.123 12.0766C129.909 11.841 129.753 11.5183 129.661 11.1188C129.564 10.7142 129.52 10.2123 129.52 9.60283V0.506801C129.52 0.168773 129.355 0.00488281 129.044 0.00488281H126.707C126.371 0.00488281 126.211 0.168773 126.211 0.506801V9.94598C126.211 11.042 126.323 11.9742 126.546 12.7373C126.77 13.5055 127.124 14.1304 127.61 14.6067C128.091 15.0881 128.718 15.4313 129.481 15.6464C130.249 15.8563 131.177 15.9639 132.27 15.9639H138.5C139.598 15.9639 140.531 15.8615 141.304 15.6464C142.076 15.4313 142.703 15.0881 143.189 14.6067C143.67 14.1304 144.02 13.5055 144.238 12.7373C144.457 11.9742 144.564 11.042 144.564 9.94598V0.506801C144.559 0.168773 144.394 0.00488281 144.078 0.00488281Z" fill="#333333"/>
<path d="M163.852 0.00488281H146.957C146.626 0.00488281 146.461 0.168773 146.461 0.506801V2.73984C146.461 3.09323 146.626 3.26224 146.957 3.26224H153.75V15.462C153.75 15.8 153.91 15.9639 154.226 15.9639H156.583C156.903 15.9639 157.064 15.8 157.064 15.462V3.26224H163.857C164.192 3.26224 164.357 3.08811 164.357 2.73984V0.506801C164.352 0.168773 164.187 0.00488281 163.852 0.00488281Z" fill="#333333"/>
<path d="M169.113 0.00488281H166.776C166.441 0.00488281 166.275 0.168773 166.275 0.506801V15.462C166.275 15.8 166.441 15.9639 166.776 15.9639H169.113C169.424 15.9639 169.589 15.8 169.589 15.462V0.506801C169.589 0.168773 169.424 0.00488281 169.113 0.00488281Z" fill="#333333"/>
<path d="M190.769 3.24175C190.551 2.47863 190.201 1.86404 189.72 1.3826C189.239 0.906292 188.612 0.552898 187.839 0.332667C187.072 0.112437 186.134 0.00488281 185.036 0.00488281H178.354C177.256 0.00488281 176.323 0.117559 175.56 0.332667C174.797 0.552898 174.171 0.901171 173.69 1.3826C173.208 1.86404 172.854 2.47863 172.63 3.24175C172.407 4.00488 172.295 4.92677 172.295 6.02793V9.9511C172.295 11.0471 172.402 11.9793 172.63 12.7424C172.854 13.5106 173.208 14.1355 173.69 14.6118C174.171 15.0932 174.797 15.4364 175.56 15.6515C176.328 15.8615 177.256 15.969 178.354 15.969H185.036C186.134 15.969 187.067 15.8666 187.839 15.6515C188.612 15.4364 189.244 15.0932 189.72 14.6118C190.201 14.1355 190.556 13.5106 190.769 12.7424C190.983 11.9793 191.095 11.0471 191.095 9.9511V6.02793C191.095 4.92677 190.983 3.99976 190.769 3.24175ZM187.781 9.69502C187.781 10.2891 187.737 10.7859 187.64 11.1854C187.543 11.59 187.392 11.9076 187.179 12.1432C186.96 12.3788 186.668 12.5426 186.299 12.6451C185.93 12.7424 185.463 12.7936 184.904 12.7936H178.481C177.917 12.7936 177.45 12.7424 177.086 12.6451C176.717 12.5426 176.425 12.3788 176.207 12.1432C175.988 11.9076 175.837 11.59 175.745 11.1854C175.648 10.7859 175.604 10.284 175.604 9.69502V6.27376C175.604 5.67965 175.653 5.18286 175.745 4.78337C175.837 4.37876 175.988 4.06122 176.207 3.82562C176.425 3.59003 176.712 3.42613 177.086 3.32882C177.455 3.22639 177.917 3.1803 178.481 3.1803H184.904C185.468 3.1803 185.935 3.23151 186.299 3.32882C186.668 3.42613 186.96 3.59515 187.179 3.82562C187.392 4.06122 187.548 4.37876 187.64 4.78337C187.737 5.18286 187.781 5.68477 187.781 6.27376V9.69502Z" fill="#333333"/>
<path d="M211.582 0.00512664H209.308C208.988 0.00512664 208.832 0.169017 208.832 0.507045V12.4097C208.832 12.5634 208.774 12.6351 208.657 12.6351H208.463C208.332 12.6351 208.239 12.5839 208.181 12.4763L200.134 1.34699C199.935 1.05506 199.75 0.824586 199.595 0.65045C199.439 0.476314 199.269 0.338029 199.099 0.240718C198.924 0.138285 198.725 0.0768255 198.497 0.040974C198.263 0.0102442 197.977 0 197.627 0H195.722C195.056 0 194.57 0.163896 194.25 0.491681C193.929 0.814344 193.773 1.4443 193.773 2.37132V15.4571C193.773 15.7951 193.939 15.959 194.269 15.959H196.543C196.854 15.959 197.014 15.7951 197.014 15.4571V3.55442C197.014 3.40589 197.073 3.32906 197.189 3.32906H197.384C197.486 3.32906 197.583 3.38029 197.661 3.48784L205.732 14.6172C205.951 14.9245 206.14 15.16 206.305 15.3342C206.47 15.5134 206.641 15.6466 206.815 15.7337C206.986 15.8259 207.185 15.8873 207.408 15.9181C207.632 15.9488 207.909 15.959 208.244 15.959H210.105C210.771 15.959 211.262 15.7951 211.577 15.4674C211.888 15.1447 212.049 14.5147 212.049 13.5928V0.507045C212.058 0.169017 211.898 0.00512664 211.582 0.00512664Z" fill="#333333"/>
<path d="M230.057 7.51858C229.425 6.84252 228.478 6.5045 227.219 6.5045H219.104C218.351 6.5045 217.977 6.0794 217.977 5.2292V4.45584C217.977 4.06147 218.065 3.74905 218.235 3.51858C218.41 3.29323 218.706 3.17543 219.124 3.17543H229.965C230.276 3.17543 230.441 3.00641 230.441 2.6735V0.512172C230.441 0.174144 230.276 0.0102539 229.965 0.0102539H218.492C217.18 0.0102539 216.218 0.353404 215.596 1.03458C214.974 1.72088 214.668 2.61205 214.668 3.72344V5.38797C214.668 6.6479 214.984 7.61589 215.62 8.29194C216.252 8.968 217.195 9.30602 218.453 9.30602H226.563C227.316 9.30602 227.691 9.73112 227.691 10.5813V11.5186C227.691 11.9129 227.603 12.2254 227.433 12.4558C227.258 12.6863 226.962 12.799 226.544 12.799H215.188C214.853 12.799 214.692 12.968 214.692 13.3009V15.4622C214.692 15.8003 214.857 15.9642 215.188 15.9642H227.171C228.483 15.9642 229.45 15.6261 230.072 14.9398C230.694 14.2484 231 13.3572 231 12.251V10.4225C231.009 9.16262 230.694 8.19463 230.057 7.51858Z" fill="#333333"/>
<path d="M18.5037 3.23688C18.2851 2.47888 17.9352 1.86428 17.459 1.37772C16.9731 0.896288 16.3317 0.548015 15.5688 0.327784C14.801 0.107554 13.8681 0 12.7699 0H6.06424C4.97093 0 4.03311 0.102432 3.27508 0.327784C2.49761 0.548015 1.8805 0.896288 1.39458 1.37772C0.918383 1.85916 0.568523 2.47888 0.340142 3.23688C0.111761 4.00512 0 4.93726 0 6.02817V9.95646C0 11.0576 0.111761 11.9846 0.340142 12.7478C0.568523 13.5262 0.918383 14.146 1.39458 14.6274C1.8805 15.0986 2.50247 15.4469 3.27508 15.6671C4.03311 15.8771 4.96607 15.9949 6.06424 15.9949H12.765C13.8584 15.9949 14.7962 15.8771 15.5639 15.6671C16.3317 15.4469 16.9682 15.0986 17.4541 14.6274C17.9303 14.146 18.2802 13.5262 18.4989 12.7478C18.7078 11.9795 18.8293 11.0576 18.8293 9.95646V6.02817C18.8341 4.93726 18.7127 4.00512 18.5037 3.23688ZM15.5153 9.70551C15.5153 10.3047 15.4667 10.7964 15.3647 11.1959C15.2772 11.6056 15.1266 11.9181 14.9079 12.1639C14.6893 12.3944 14.3977 12.5634 14.0236 12.6556C13.6543 12.7734 13.1975 12.8143 12.629 12.8143H6.19544C5.63664 12.8143 5.17016 12.7734 4.80086 12.6556C4.43156 12.5634 4.13515 12.3944 3.92621 12.1639C3.70755 11.9232 3.55691 11.6056 3.45973 11.1959C3.3674 10.7964 3.31881 10.3047 3.31881 9.70551V6.27401C3.31881 5.68502 3.3674 5.1831 3.45973 4.78362C3.55691 4.38413 3.70755 4.06146 3.92621 3.81563C4.13515 3.58515 4.43642 3.41614 4.80086 3.32395C5.17016 3.23176 5.63664 3.17542 6.19544 3.17542H12.629C13.1975 3.17542 13.6543 3.22663 14.0236 3.32395C14.4026 3.41614 14.6893 3.58515 14.9079 3.81563C15.1266 4.05634 15.2772 4.38413 15.3647 4.78362C15.4667 5.1831 15.5153 5.68502 15.5153 6.27401V9.70551Z" fill="#662D91"/>
<path d="M63.0568 7.51832C62.4203 6.84739 61.4727 6.49912 60.2094 6.49912H52.0848C51.3365 6.49912 50.9672 6.07914 50.9672 5.21871V4.44022C50.9672 4.05097 51.045 3.73856 51.2247 3.51833C51.3948 3.28785 51.6912 3.17005 52.0994 3.17005H62.9645C63.2755 3.17005 63.4407 3.00104 63.4407 2.66813V0.496556C63.4407 0.158528 63.2706 0.00488281 62.9645 0.00488281H51.4823C50.1654 0.00488281 49.2033 0.342908 48.5765 1.03433C47.9594 1.71551 47.6387 2.60667 47.6387 3.72319V5.39284C47.6387 6.65276 47.9594 7.631 48.5959 8.30194C49.2325 8.98311 50.18 9.32114 51.4434 9.32114H59.5679C60.3163 9.32114 60.6953 9.75136 60.6953 10.5913V11.5337C60.6953 11.9332 60.6078 12.2353 60.428 12.4761C60.2579 12.6963 59.9713 12.8141 59.5436 12.8141H48.1683C47.8379 12.8141 47.6727 12.9831 47.6727 13.316V15.4773C47.6727 15.8154 47.8428 15.9895 48.1683 15.9895H60.1705C61.4873 15.9895 62.4494 15.6412 63.0763 14.9601C63.6934 14.2686 64.0141 13.3621 64.0141 12.261V10.4325C64.0141 9.16749 63.6934 8.20462 63.0568 7.51832Z" fill="#662D91"/>
<path d="M44.0911 0.527284C43.8336 0.16877 43.3331 0.00488281 42.5654 0.00488281H40.2524C39.9414 0.00488281 39.6644 0.0253669 39.4361 0.06634C39.2174 0.107313 39.0182 0.194378 38.8384 0.327541C38.6683 0.455582 38.508 0.62972 38.3816 0.84995C38.2407 1.07018 38.1046 1.36211 37.9637 1.73087L33.4447 12.6963C33.3961 12.8346 33.2941 12.9063 33.158 12.9063H32.9005C32.7401 12.9063 32.6527 12.8346 32.5895 12.6963L28.0899 1.73599C27.9393 1.36723 27.8032 1.0753 27.6623 0.855069C27.5214 0.634838 27.3756 0.455587 27.1958 0.332667C27.016 0.194383 26.8265 0.112432 26.5884 0.0714588C26.3697 0.0304857 26.0928 0.0100016 25.7721 0.0100016H23.4105C22.6428 0.0100016 22.1277 0.179018 21.8653 0.532411C21.598 0.890926 21.4766 1.51064 21.4766 2.37108V15.4825C21.4766 15.8205 21.6466 15.9946 21.9722 15.9946H24.1831C24.5038 15.9946 24.6593 15.8154 24.6593 15.4825V3.56954C24.6593 3.41077 24.7176 3.33907 24.8294 3.33907H25.0286C25.1695 3.33907 25.257 3.40052 25.3056 3.52856L29.6788 13.7514C29.8586 14.1611 30.0287 14.5094 30.2182 14.791C30.3883 15.0727 30.5875 15.3032 30.8062 15.4825C31.0054 15.672 31.2435 15.7949 31.5253 15.8717C31.7926 15.9434 32.0938 15.9998 32.4631 15.9998H33.5079C33.8674 15.9998 34.1736 15.9485 34.4457 15.8717C34.7129 15.8 34.9559 15.672 35.1648 15.4825C35.3738 15.3032 35.573 15.0727 35.7431 14.791C35.9326 14.5094 36.1027 14.1611 36.2824 13.7514L40.6654 3.52856C40.7043 3.40052 40.7966 3.33907 40.9424 3.33907H41.1319C41.2437 3.33907 41.3117 3.41077 41.3117 3.56954V15.4825C41.3117 15.8205 41.4623 15.9946 41.7782 15.9946H43.9988C44.3292 15.9946 44.4847 15.8154 44.4847 15.4825V2.37108C44.4799 1.50552 44.3584 0.885799 44.0911 0.527284Z" fill="#662D91"/>
</svg>
