<svg width="22" height="20" viewBox="0 0 22 20" fill="none" xmlns="http://www.w3.org/2000/svg">
<path d="M0.742188 4.23448V15.7663C0.742188 16.828 1.16704 17.7718 1.84682 18.5091C2.52659 19.2169 3.40463 19.6003 4.42429 19.6003H9.97576V17.2114H4.42429C3.65954 17.2114 3.06474 16.5626 3.06474 15.7663V4.23448C3.06474 3.43817 3.65954 2.81882 4.42429 2.81882H9.97576V0.400391H4.42429C3.40463 0.400391 2.52659 0.813293 1.84682 1.52113C1.16704 2.25845 0.742188 3.17273 0.742188 4.23448ZM6.83181 7.71466V12.3156C6.83181 12.8464 7.28499 13.2888 7.79482 13.2888H12.9214V16.9165C12.9214 17.2409 13.0914 17.5063 13.3746 17.6538C13.4879 17.6833 13.6012 17.6833 13.6579 17.6833C13.8561 17.6833 14.0261 17.6243 14.1677 17.4768L20.8238 10.546C21.1353 10.2806 21.107 9.74968 20.8238 9.45475L14.1677 2.55338C13.7711 2.11099 12.9214 2.37642 12.9214 3.08425V6.74139H7.79482C7.28499 6.74139 6.83181 7.18378 6.83181 7.71466Z" fill="#6461B4"/>
</svg>
