<svg width="22" height="21" viewBox="0 0 22 21" fill="none" xmlns="http://www.w3.org/2000/svg">
<path d="M20.5671 5.98386L19.25 5.26826V2.73913C19.25 1.22918 18.0159 0 16.5 0H5.5C3.98349 0 2.75 1.22918 2.75 2.73913V5.26826L1.43344 5.98386C0.549427 6.46378 0 7.38481 0 8.38916V18.2609C0 19.7708 1.23349 21 2.75 21H19.25C20.7659 21 22 19.7708 22 18.2609V8.38916C22 7.38481 21.4506 6.46378 20.5671 5.98386ZM1.83333 9.52932V8.38916C1.83333 8.05418 2.01667 7.74717 2.31115 7.58739L2.75 7.34886V10.0064L1.83333 9.52932ZM10.4655 14.0198L4.58333 10.9599V2.73913C4.58333 2.23582 4.99469 1.82609 5.5 1.82609H16.5C17.0053 1.82609 17.4167 2.23582 17.4167 2.73913V10.9599L11.5368 14.0186C11.2063 14.1898 10.7937 14.1898 10.4655 14.0198ZM20.1667 9.52932L19.25 10.0058V7.34829L19.6889 7.58682C19.9833 7.74774 20.1667 8.05418 20.1667 8.38916V9.52932Z" fill="#9998AE"/>
<path d="M9.39648 11.2077C8.25982 11.2077 7.33398 10.2867 7.33398 9.15335C7.33398 8.43432 7.7144 7.76552 8.32685 7.41115C8.65513 7.22112 9.07565 7.3324 9.26643 7.65881C9.45721 7.98579 9.34606 8.40465 9.01778 8.59468C8.82414 8.7071 8.70898 8.91595 8.70898 9.15335C8.70898 9.53112 9.01778 9.83813 9.39648 9.83813C9.77518 9.83813 10.084 9.53055 10.084 9.15335C10.084 9.05576 10.0645 8.97188 10.0261 8.89884C9.84908 8.56443 9.97684 8.15014 10.312 7.97267C10.6466 7.79463 11.0631 7.92359 11.2413 8.25742C11.3851 8.52962 11.4584 8.83093 11.4584 9.15278C11.459 10.2867 10.5331 11.2077 9.39648 11.2077Z" fill="#9998AE"/>
<path d="M15.8125 10.7736C15.7483 10.7736 15.6824 10.7644 15.6189 10.7462L5.99385 7.93971C5.70167 7.85411 5.5 7.58648 5.5 7.28232V5.91275C5.5 5.60688 5.70339 5.33811 5.99844 5.25422L15.6234 2.51509C15.8297 2.45746 16.0554 2.49683 16.2256 2.62751C16.3986 2.75648 16.5 2.95906 16.5 3.17362V10.0888C16.5 10.3039 16.398 10.5071 16.2239 10.6366C16.1041 10.7268 15.9592 10.7736 15.8125 10.7736Z" fill="#9998AE"/>
<path d="M15.8125 11.1622C15.4327 11.1622 15.125 10.8552 15.125 10.4774V2.71652C15.125 2.33875 15.4327 2.03174 15.8125 2.03174C16.1918 2.03174 16.5 2.33875 16.5 2.71652V10.4774C16.5 10.8552 16.1918 11.1622 15.8125 11.1622Z" fill="#9998AE"/>
<path d="M6.1875 8.42318C5.80823 8.42318 5.5 8.11617 5.5 7.73839V5.45578C5.5 5.07801 5.80823 4.771 6.1875 4.771C6.56677 4.771 6.875 5.07801 6.875 5.45578V7.73839C6.875 8.11617 6.56677 8.42318 6.1875 8.42318Z" fill="#9998AE"/>
</svg>
