<svg width="28" height="27" viewBox="0 0 28 27" fill="none" xmlns="http://www.w3.org/2000/svg">
<path d="M9.80698 18.9494H26.5929C27.0991 18.9494 27.5073 18.5412 27.5073 18.035V0.914406C27.5073 0.408217 27.0991 0 26.5929 0H9.80698C9.30079 0 8.89258 0.408217 8.89258 0.914406V18.035C8.89258 18.5412 9.30079 18.9494 9.80698 18.9494Z" fill="#BDBDD3"/>
<path d="M26.5923 20.8272H6.59789V4.85777C6.59789 4.09849 5.98556 3.48616 5.22628 3.48616H2.34426C1.58498 3.478 0.972656 4.09849 0.972656 4.85777C0.972656 5.61706 1.58498 6.22938 2.34426 6.22938H3.8465V22.1988C3.8465 22.9581 4.45883 23.5704 5.21811 23.5704H6.16518C6.14885 23.7011 6.13252 23.8317 6.13252 23.9623C6.13252 25.4401 7.33267 26.6484 8.81858 26.6484C10.3045 26.6484 11.5047 25.4482 11.5047 23.9623C11.5047 23.8317 11.4965 23.7011 11.472 23.5704H19.9221C19.9058 23.7011 19.8894 23.8317 19.8894 23.9623C19.8894 25.4401 21.0896 26.6484 22.5755 26.6484C24.0532 26.6484 25.2616 25.4482 25.2616 23.9623C25.2616 23.8317 25.2534 23.7011 25.2289 23.5704H26.5842C27.3435 23.5704 27.964 22.9581 27.964 22.1988C27.9721 21.4477 27.3516 20.8272 26.5923 20.8272ZM8.82675 24.8196C8.36138 24.8196 7.97766 24.4359 7.97766 23.9705C7.97766 23.5051 8.36138 23.1214 8.82675 23.1214C9.29212 23.1214 9.67584 23.5051 9.67584 23.9705C9.67584 24.4359 9.29212 24.8196 8.82675 24.8196ZM22.5837 24.8196C22.1183 24.8196 21.7346 24.4359 21.7346 23.9705C21.7346 23.5051 22.1183 23.1214 22.5837 23.1214C23.049 23.1214 23.4328 23.5051 23.4328 23.9705C23.4328 24.4359 23.049 24.8196 22.5837 24.8196Z" fill="#BDBDD3"/>
</svg>
