<svg width="20" height="24" viewBox="0 0 20 24" fill="none" xmlns="http://www.w3.org/2000/svg">
<path d="M1.24763 24H18.7524C19.5009 24 20 23.521 20 22.8025V1.19746C20 0.478984 19.5009 0 18.7524 0H1.24763C0.49905 0 0 0.478984 0 1.19746V22.7953C0 23.5138 0.49905 24 1.24763 24ZM3.74291 3.59964H16.242C16.9905 3.59964 17.4896 4.07862 17.4896 4.7971C17.4896 5.51557 16.9905 5.99456 16.242 5.99456H3.74291C2.99433 5.99456 2.49528 5.51557 2.49528 4.7971C2.49528 4.07862 2.99433 3.59964 3.74291 3.59964ZM3.74291 8.39673H16.242C16.9905 8.39673 17.4896 8.87572 17.4896 9.59419C17.4896 10.3127 16.9905 10.7917 16.242 10.7917H3.74291C2.99433 10.7917 2.49528 10.3127 2.49528 9.59419C2.49528 8.87572 2.99433 8.39673 3.74291 8.39673ZM3.74291 13.2011H8.74102C9.4896 13.2011 9.98866 13.6801 9.98866 14.3985C9.98866 15.117 9.4896 15.596 8.74102 15.596H3.74291C2.99433 15.596 2.49528 15.117 2.49528 14.3985C2.49528 13.6801 2.99433 13.2011 3.74291 13.2011ZM3.74291 17.9982H8.74102C9.4896 17.9982 9.98866 18.4772 9.98866 19.1956C9.98866 19.9141 9.4896 20.3931 8.74102 20.3931H3.74291C2.99433 20.3931 2.49528 19.9141 2.49528 19.1956C2.49528 18.4772 2.99433 17.9982 3.74291 17.9982Z" fill="#9998AE"/>
</svg>
