<svg width="24" height="30" viewBox="0 0 24 30" fill="none" xmlns="http://www.w3.org/2000/svg">
<path d="M1.49716 30H22.5028C23.4011 30 24 29.4013 24 28.5032V1.49682C24 0.59873 23.4011 0 22.5028 0H1.49716C0.59886 0 0 0.59873 0 1.49682V28.4941C0 29.3922 0.59886 30 1.49716 30ZM4.49149 4.49955H19.4904C20.3887 4.49955 20.9875 5.09828 20.9875 5.99637C20.9875 6.89447 20.3887 7.4932 19.4904 7.4932H4.49149C3.59319 7.4932 2.99433 6.89447 2.99433 5.99637C2.99433 5.09828 3.59319 4.49955 4.49149 4.49955ZM4.49149 10.4959H19.4904C20.3887 10.4959 20.9875 11.0946 20.9875 11.9927C20.9875 12.8908 20.3887 13.4896 19.4904 13.4896H4.49149C3.59319 13.4896 2.99433 12.8908 2.99433 11.9927C2.99433 11.0946 3.59319 10.4959 4.49149 10.4959ZM4.49149 16.5014H10.4892C11.3875 16.5014 11.9864 17.1001 11.9864 17.9982C11.9864 18.8963 11.3875 19.495 10.4892 19.495H4.49149C3.59319 19.495 2.99433 18.8963 2.99433 17.9982C2.99433 17.1001 3.59319 16.5014 4.49149 16.5014ZM4.49149 22.4977H10.4892C11.3875 22.4977 11.9864 23.0965 11.9864 23.9946C11.9864 24.8927 11.3875 25.4914 10.4892 25.4914H4.49149C3.59319 25.4914 2.99433 24.8927 2.99433 23.9946C2.99433 23.0965 3.59319 22.4977 4.49149 22.4977Z" fill="#BDBDD3"/>
</svg>
