<svg width="22" height="24" viewBox="0 0 22 24" fill="none" xmlns="http://www.w3.org/2000/svg">
<path d="M16.6941 13.2061C13.7664 13.2061 11.3887 15.6267 11.3887 18.6073C11.3887 21.588 13.7664 24.0086 16.6941 24.0086C19.6217 24.0086 21.9994 21.5793 21.9994 18.6073C21.9994 15.6353 19.6217 13.2061 16.6941 13.2061ZM16.0764 20.8643L14.0794 18.8572L15.0525 17.8579L16.0679 18.883L18.3356 16.5657L19.3171 17.5564L16.0764 20.8643Z" fill="#9998AE"/>
<path d="M10.8731 21.9497L10.1962 22.346L9.50231 21.9411V12.3963L1.37923 7.62383V6.80546L2.07308 6.40057L10.1962 11.173L13.5638 9.19167L5.44077 4.41924L6.82 3.60948L14.9431 8.38191L18.3108 6.40057L19.0046 6.80546V7.61522L10.8815 12.3877V15.2304C12.0323 13.1802 14.2069 11.7933 16.6946 11.7933C18.0569 11.7933 19.3262 12.2154 20.3923 12.9304V5.99569L10.1962 0L0 5.99569V17.9785L10.1962 23.9742L11.6769 23.1041C11.3723 22.7423 11.1015 22.3632 10.8731 21.9497Z" fill="#9998AE"/>
</svg>
