<svg width="26" height="26" viewBox="0 0 26 26" fill="none" xmlns="http://www.w3.org/2000/svg">
<path d="M18.7614 16.605H17.5754L17.1441 16.1738C18.7614 14.233 19.7317 11.6454 19.4083 8.84215C18.8692 4.42163 15.3113 0.97146 10.8907 0.540189C4.96075 0.00110054 0.00110027 4.96071 0.540189 10.8907C0.97146 15.3112 4.42164 18.8692 8.84217 19.4083C11.6454 19.7317 14.233 18.8692 16.1738 17.1441L16.6051 17.5754V18.7614L22.8585 25.0148C23.5054 25.6617 24.4757 25.6617 25.0148 25.0148C25.6617 24.3679 25.6617 23.3975 25.0148 22.8585L18.7614 16.605ZM10.0281 16.605C6.36233 16.605 3.45128 13.6939 3.45128 10.0281C3.45128 6.36234 6.36233 3.45127 10.0281 3.45127C13.6939 3.45127 16.6051 6.36234 16.6051 10.0281C16.6051 13.6939 13.6939 16.605 10.0281 16.605Z" fill="black"/>
</svg>
