<svg width="27" height="26" viewBox="0 0 27 26" fill="none" xmlns="http://www.w3.org/2000/svg">
<path d="M18.6558 7.7833C21.1195 7.7833 23.3242 8.69344 25.1445 10.1214V3.89165C25.1445 3.24042 24.4933 2.59705 23.8499 2.59705H22.5553V1.2946C22.5553 0.51784 22.0374 0 21.2607 0C20.4839 0 19.9661 0.51784 19.9661 1.2946V2.5892H6.98085V1.2946C6.98085 0.51784 6.46301 0 5.68625 0C4.90949 0 4.39165 0.51784 4.39165 1.2946V2.5892H1.7946C1.14338 2.5892 0.5 3.10704 0.5 3.8838V22.0474C0.5 22.8242 1.15122 23.342 1.7946 23.342H9.71128C8.80114 21.7885 8.2833 19.9682 8.2833 18.1558C8.27545 12.4517 12.9439 7.7833 18.6558 7.7833Z" fill="#BDBDD3"/>
<path d="M18.6544 10.3804C14.3704 10.3804 10.8711 13.8797 10.8711 18.1637C10.8711 22.4476 14.3704 25.947 18.6544 25.947C22.9383 25.947 26.4377 22.4476 26.4377 18.1637C26.4377 13.8797 22.9305 10.3804 18.6544 10.3804ZM21.2514 19.4583H18.6544C17.8776 19.4583 17.3598 18.9404 17.3598 18.1637V14.272C17.3598 13.4953 17.8776 12.9774 18.6544 12.9774C19.4312 12.9774 19.949 13.4953 19.949 14.272V16.8691H21.2436C22.0203 16.8691 22.5382 17.3869 22.5382 18.1637C22.546 18.9404 22.0282 19.4583 21.2514 19.4583Z" fill="#BDBDD3"/>
</svg>
