<svg width="75" height="65" viewBox="0 0 75 65" fill="none" xmlns="http://www.w3.org/2000/svg">
<path d="M36.5064 21.11V44.0003L60.0873 35.2003L64.5279 11.4971L36.5064 21.11Z" fill="#4A770A"/>
<path d="M36.5064 21.11V44.0003L12.9127 35.2003L8.47212 11.4971L36.5064 21.11Z" fill="#68BA01"/>
<path d="M36.5064 19.2642H36.6595L65 8.50293L36.5064 16.4642V19.2642Z" fill="#68BA01"/>
<path d="M8 8.50293L36.3405 19.2642H36.5064V16.4642L8 8.50293Z" fill="#4A770A"/>
<path d="M8 3.92285L36.3405 14.6841H36.5064V12.6067L8 3.92285Z" fill="#4A770A"/>
<path d="M65 3.92285L36.5064 12.6067V14.6841H36.6595L65 3.92285Z" fill="#68BA01"/>
<path d="M8 0L36.3405 10.7613H36.5064V9.08387L8 0Z" fill="#4A770A"/>
<path d="M65 0L36.5064 9.08387V10.7613H36.6595L65 0Z" fill="#68BA01"/>
<path d="M2.772 58.524H8.37V60H0.954V49.866H8.19V51.45H2.772V54.114H6.93V55.626H2.772V58.524ZM9.73758 56.598V55.32H13.7336V56.598H9.73758ZM15.8645 60V49.866H17.7005V58.434H22.7045V60H15.8645ZM27.3075 60.18C26.4555 60.18 25.7595 60 25.2195 59.64C24.6915 59.268 24.2955 58.8 24.0315 58.236C23.7795 57.66 23.6475 57.054 23.6355 56.418C23.6235 55.674 23.7615 55.014 24.0495 54.438C24.3495 53.85 24.7695 53.394 25.3095 53.07C25.8615 52.734 26.5095 52.566 27.2535 52.566C27.9135 52.566 28.5015 52.71 29.0175 52.998C29.5455 53.286 29.9655 53.694 30.2775 54.222C30.5895 54.738 30.7515 55.35 30.7635 56.058C30.7635 56.082 30.7635 56.148 30.7635 56.256C30.7635 56.364 30.7635 56.454 30.7635 56.526H25.3815C25.3815 57.21 25.5495 57.738 25.8855 58.11C26.2215 58.47 26.6835 58.65 27.2715 58.65C27.7275 58.65 28.1055 58.536 28.4055 58.308C28.7175 58.08 28.9035 57.78 28.9635 57.408H30.7455C30.6615 58.188 30.3255 58.848 29.7375 59.388C29.1495 59.916 28.3395 60.18 27.3075 60.18ZM25.4355 55.698H28.9275C28.9155 55.614 28.8855 55.482 28.8375 55.302C28.8015 55.122 28.7235 54.936 28.6035 54.744C28.4955 54.552 28.3275 54.39 28.0995 54.258C27.8715 54.126 27.5775 54.06 27.2175 54.06C26.7375 54.06 26.3715 54.162 26.1195 54.366C25.8795 54.558 25.7055 54.786 25.5975 55.05C25.5015 55.302 25.4475 55.518 25.4355 55.698ZM34.704 60.18C33.684 60.18 32.958 59.832 32.526 59.136C32.094 58.44 31.878 57.528 31.878 56.4C31.878 55.26 32.094 54.342 32.526 53.646C32.97 52.938 33.696 52.584 34.704 52.584C35.28 52.584 35.736 52.686 36.072 52.89C36.408 53.082 36.66 53.298 36.828 53.538C36.996 53.778 37.098 53.958 37.134 54.078H37.17V52.602H39.06V60H37.476L37.17 58.794H37.134C37.098 58.902 36.99 59.07 36.81 59.298C36.642 59.514 36.384 59.718 36.036 59.91C35.7 60.09 35.256 60.18 34.704 60.18ZM35.46 58.632C36.132 58.632 36.582 58.422 36.81 58.002C37.05 57.57 37.17 57.042 37.17 56.418C37.17 55.758 37.05 55.224 36.81 54.816C36.57 54.408 36.12 54.204 35.46 54.204C34.992 54.204 34.626 54.306 34.362 54.51C34.11 54.714 33.93 54.984 33.822 55.32C33.726 55.644 33.678 56.01 33.678 56.418C33.678 56.826 33.726 57.198 33.822 57.534C33.93 57.87 34.11 58.14 34.362 58.344C34.626 58.536 34.992 58.632 35.46 58.632ZM40.4123 60V52.602H42.1223L42.2483 54.654C42.3203 54.342 42.4583 54.03 42.6623 53.718C42.8783 53.394 43.1723 53.13 43.5443 52.926C43.9283 52.71 44.4203 52.602 45.0203 52.602H45.2903V54.654H45.0203C43.9883 54.654 43.2683 54.822 42.8603 55.158C42.4523 55.482 42.2483 56.034 42.2483 56.814V60H40.4123ZM46.4043 60V52.638H47.9703L48.2763 54.204H48.3123C48.3243 54.168 48.3663 54.072 48.4383 53.916C48.5223 53.748 48.6543 53.562 48.8343 53.358C49.0263 53.154 49.2783 52.98 49.5903 52.836C49.9143 52.68 50.3163 52.602 50.7963 52.602C51.4563 52.602 51.9663 52.734 52.3263 52.998C52.6863 53.262 52.9443 53.598 53.1003 54.006C53.2563 54.402 53.3523 54.816 53.3883 55.248C53.4243 55.68 53.4423 56.07 53.4423 56.418V60H51.6423V56.4C51.6423 56.004 51.6063 55.644 51.5343 55.32C51.4623 54.984 51.3063 54.72 51.0663 54.528C50.8383 54.324 50.4963 54.222 50.0403 54.222C49.5603 54.222 49.1943 54.33 48.9423 54.546C48.6903 54.762 48.5163 55.044 48.4203 55.392C48.3243 55.728 48.2763 56.088 48.2763 56.472V60H46.4043ZM56.013 51.792C55.617 51.804 55.353 51.714 55.221 51.522C55.101 51.318 55.041 51.078 55.041 50.802C55.041 50.538 55.107 50.31 55.239 50.118C55.371 49.926 55.629 49.83 56.013 49.83C56.385 49.83 56.631 49.926 56.751 50.118C56.883 50.31 56.949 50.538 56.949 50.802C56.949 51.078 56.883 51.312 56.751 51.504C56.631 51.684 56.385 51.78 56.013 51.792ZM55.077 60V52.602H56.913V60H55.077ZM58.5156 60V52.638H60.0816L60.3876 54.204H60.4236C60.4356 54.168 60.4776 54.072 60.5496 53.916C60.6336 53.748 60.7656 53.562 60.9456 53.358C61.1376 53.154 61.3896 52.98 61.7016 52.836C62.0256 52.68 62.4276 52.602 62.9076 52.602C63.5676 52.602 64.0776 52.734 64.4376 52.998C64.7976 53.262 65.0556 53.598 65.2116 54.006C65.3676 54.402 65.4636 54.816 65.4996 55.248C65.5356 55.68 65.5536 56.07 65.5536 56.418V60H63.7536V56.4C63.7536 56.004 63.7176 55.644 63.6456 55.32C63.5736 54.984 63.4176 54.72 63.1776 54.528C62.9496 54.324 62.6076 54.222 62.1516 54.222C61.6716 54.222 61.3056 54.33 61.0536 54.546C60.8016 54.762 60.6276 55.044 60.5316 55.392C60.4356 55.728 60.3876 56.088 60.3876 56.472V60H58.5156ZM68.9704 63.294V61.566H72.2104V58.686H72.1744C72.1624 58.71 72.1084 58.8 72.0124 58.956C71.9284 59.112 71.7904 59.286 71.5984 59.478C71.4064 59.67 71.1544 59.838 70.8424 59.982C70.5424 60.114 70.1644 60.18 69.7084 60.18C68.6164 60.18 67.8304 59.832 67.3504 59.136C66.8704 58.44 66.6304 57.534 66.6304 56.418C66.6304 55.254 66.8704 54.33 67.3504 53.646C67.8424 52.95 68.6284 52.602 69.7084 52.602C70.1884 52.602 70.5844 52.68 70.8964 52.836C71.2084 52.98 71.4544 53.154 71.6344 53.358C71.8144 53.562 71.9404 53.748 72.0124 53.916C72.0964 54.084 72.1444 54.186 72.1564 54.222H72.1924L72.2104 52.602H74.1004V60.63C74.1004 61.614 73.9024 62.304 73.5064 62.7C73.1224 63.096 72.5224 63.294 71.7064 63.294H68.9704ZM70.2844 58.632C70.9564 58.632 71.4424 58.428 71.7424 58.02C72.0424 57.6 72.1924 57.066 72.1924 56.418C72.1924 55.794 72.0484 55.278 71.7604 54.87C71.4724 54.45 70.9924 54.24 70.3204 54.24C69.8284 54.24 69.4444 54.348 69.1684 54.564C68.8924 54.768 68.6944 55.038 68.5744 55.374C68.4664 55.698 68.4124 56.046 68.4124 56.418C68.4124 56.79 68.4604 57.15 68.5564 57.498C68.6644 57.834 68.8504 58.11 69.1144 58.326C69.3904 58.53 69.7804 58.632 70.2844 58.632Z" fill="white"/>
</svg>
